<?xml version="1.0" encoding="UTF-8"?>
<svg width="30px" height="30px" viewBox="0 0 30 30" version="1.1" xmlns="http://www.w3.org/2000/svg" xmlns:xlink="http://www.w3.org/1999/xlink">
    <title>badage_favorite</title>
    <g id="badage_favorite" stroke="none" stroke-width="1" fill="none" fill-rule="evenodd">
        <path d="M20.6164725,4.71516015 C18.7912145,4.80389377 17.0092625,5.85939584 15.7606733,7.4724021 L15.5937631,7.69577466 L15.0186034,8.49338026 L14.4434574,7.69576477 C13.1354159,5.88176598 11.1660605,4.70909091 9.17163391,4.70909091 C7.317647,4.70909091 5.5203777,5.5196529 4.2961528,6.90725449 C2.12134723,9.37245248 2.24971572,13.7876846 4.25749404,17.0837253 C5.76258032,19.5543189 8.05936985,21.7185791 11.2512884,23.9124781 C12.597695,24.8379497 13.7860533,25.570881 14.9461721,26.169339 L15.025,26.208 L15.1585184,26.1445336 C20.3176775,23.6055767 24.479503,20.0775958 26.3384753,16.1433543 L26.4921457,15.8051523 C27.1108539,14.3866771 27.3788452,12.7827331 27.265606,11.2273625 C26.9922281,7.46857099 24.7005692,4.83115495 21.1176507,4.71321392 L20.8655937,4.70909091 L20.6164725,4.71516015 Z M21.1356564,3.29484769 C25.5154161,3.42324018 28.3566226,6.6775217 28.6800479,11.1244367 C28.8098472,12.907264 28.5034234,14.7412288 27.7920314,16.3721944 C25.8579628,20.8053786 21.3610216,24.6746567 15.7783353,27.4201439 L15.3233349,27.6402773 L15.0132587,27.7878489 L14.7052172,27.6360758 C13.3520387,26.9693604 11.9957544,26.145095 10.4479692,25.081203 C7.10573935,22.7839907 4.67292237,20.4915521 3.04634277,17.8215276 C0.743513205,14.0411203 0.595728906,8.95808177 3.23268228,5.96902738 C4.72622193,4.27617013 6.91085362,3.29090909 9.17163391,3.29090909 C11.2909002,3.29090909 13.3294645,4.31784113 14.8498469,5.95743975 L15.018,6.145 L15.187408,5.9574311 C16.6417157,4.38912219 18.5700835,3.3813652 20.5896666,3.29669882 L20.8655937,3.29090909 L21.1356564,3.29484769 Z" id="Path" fill="#FF6666" fill-rule="nonzero"></path>
    </g>
</svg>