<?xml version="1.0" encoding="UTF-8"?>
<svg width="18px" height="18px" viewBox="0 0 18 18" version="1.1" xmlns="http://www.w3.org/2000/svg" xmlns:xlink="http://www.w3.org/1999/xlink">
    <title>card_time</title>
    <g id="card_time" stroke="none" stroke-width="1" fill="none" fill-rule="evenodd">
        <path d="M8.98546025,1.02852906 C13.3887401,1.02852906 16.9709148,4.61073226 16.9709148,9.0139836 C16.9709148,13.4172349 13.3887401,16.9994381 8.98546025,16.9994381 C4.58220891,16.9994381 1.0000057,13.4172635 1.0000057,9.0139836 C1.0000057,4.61073226 4.58220891,1.02852906 8.98546025,1.02852906 Z M8.98546025,2.7739836 C5.54463316,2.7739836 2.74546025,5.57332763 2.74546025,9.0139836 C2.74546025,12.4548107 5.54463316,15.2539836 8.98546025,15.2539836 C12.4262873,15.2539836 15.2254602,12.4548107 15.2254602,9.0139836 C15.2254602,5.57332763 12.4262873,2.7739836 8.98546025,2.7739836 Z M9.0002738,5.00014831 C9.37386381,5.00014831 9.67666595,5.30297897 9.67666595,5.67668307 L9.67666595,5.67668307 L9.67666595,9.02356364 L11.9981205,11.3449041 C12.2623629,11.6090039 12.2621918,12.0373248 11.9981205,12.3015957 C11.7340492,12.5658667 11.3056998,12.5658667 11.0414574,12.3015957 L11.0414574,12.3015957 L8.52184242,9.78220891 C8.38135045,9.64168841 8.3179779,9.45490766 8.32687629,9.27095045 C8.32636292,9.2603123 8.32373904,9.25033012 8.32373904,9.23969198 L8.32373904,9.23969198 L8.32373904,5.67668307 C8.32373904,5.30297897 8.62662674,5.00014831 9.0002738,5.00014831 Z" id="Combined-Shape" fill="#EC6C01"></path>
    </g>
</svg>