<?xml version="1.0" encoding="UTF-8"?>
<svg width="18px" height="18px" viewBox="0 0 18 18" version="1.1" xmlns="http://www.w3.org/2000/svg" xmlns:xlink="http://www.w3.org/1999/xlink">
    <title>card_people</title>
    <g id="card_people" stroke="none" stroke-width="1" fill="none" fill-rule="evenodd">
        <path d="M12.1995325,9.90472377 C14.0452556,10.6171368 15.3565217,12.399861 15.3565217,14.4919867 L15.3565217,14.4919867 L15.3565217,14.8092831 C15.3565217,15.788616 14.5604901,16.5826087 13.5786423,16.5826087 L13.5786423,16.5826087 L3.77787942,16.5826087 C2.79603166,16.5826087 2,15.788616 2,14.8092831 L2,14.8092831 L2,14.4919867 C2,12.399485 3.31201998,10.6163849 5.15811992,9.90434783 C6.15089804,10.7114986 7.38263642,11.1513525 8.68033387,11.1513525 C9.97953895,11.1513525 11.2101466,10.7118745 12.1995325,9.90472377 Z M8.68000014,1 C11.138627,1 13.1304348,2.99239394 13.1304348,5.45217391 C13.1304348,6.22790249 12.9318106,6.95699686 12.5829137,7.59143078 C12.4437724,7.84548275 12.2802814,8.08422201 12.0959192,8.30521243 C12.0033902,8.41553363 11.9059913,8.52133062 11.8037224,8.62225538 C11.7038886,8.72144005 11.5991847,8.8157525 11.4899588,8.9048447 C11.354296,9.01586194 11.2095891,9.11574264 11.0607079,9.21040311 C10.970266,9.26782582 10.8798242,9.32524852 10.7852081,9.37605892 C10.5347537,9.51108928 10.2696895,9.62245454 9.99279835,9.70771856 C9.57780941,9.83544058 9.13673147,9.90434783 8.68000014,9.90434783 C8.2232688,9.90434783 7.78219086,9.83544058 7.36720192,9.70771856 C7.09031072,9.62245454 6.82489868,9.51108928 6.57409648,9.37605892 C6.47913254,9.32524852 6.38834284,9.26782582 6.29755314,9.21005509 C6.14867194,9.11574264 6.00361713,9.01586194 5.8676065,8.9048447 C5.75803273,8.8157525 5.65298104,8.72144005 5.55245145,8.62225538 C5.45053044,8.52133062 5.35278368,8.41553363 5.26060256,8.30521243 C5.07624033,8.08422201 4.9127493,7.84548275 4.77326014,7.59143078 C4.42471117,6.95699686 4.22608696,6.22790249 4.22608696,5.45217391 C4.22608696,2.99239394 6.22137327,1 8.68000014,1 Z" id="Combined-Shape" fill="#EC6C01"></path>
    </g>
</svg>