<?xml version="1.0" encoding="UTF-8"?>
<svg width="18px" height="18px" viewBox="0 0 18 18" version="1.1" xmlns="http://www.w3.org/2000/svg" xmlns:xlink="http://www.w3.org/1999/xlink">
    <title>card_organization</title>
    <g id="card_organization" stroke="none" stroke-width="1" fill="none" fill-rule="evenodd">
        <path d="M8.20000625,5.19999375 L8.20000625,17.9999813 L2.39999375,17.9999813 C2.17900625,17.9999813 2.00001875,17.8209938 2.00001875,17.6000063 L2.00001875,5.60000625 C2.00001875,5.37898125 2.17900625,5.19999375 2.39999375,5.19999375 L8.20000625,5.19999375 Z M4.600025,11.4 L3.0000125,11.4 L3.0000125,13.0000125 L4.600025,13.0000125 L4.600025,11.4 Z M7.2000125,11.4 L5.6,11.4 L5.6,13.0000125 L7.2000125,13.0000125 L7.2000125,11.4 Z M4.600025,8.799975 L3.0000125,8.799975 L3.0000125,10.3999875 L4.600025,10.3999875 L4.600025,8.799975 Z M7.2000125,8.799975 L5.6,8.799975 L5.6,10.3999875 L7.2000125,10.3999875 L7.2000125,8.799975 Z M4.600025,6.1999875 L3.0000125,6.1999875 L3.0000125,7.8 L4.600025,7.8 L4.600025,6.1999875 Z M7.2000125,6.1999875 L5.6,6.1999875 L5.6,7.8 L7.2000125,7.8 L7.2000125,6.1999875 Z" id="Combined-Shape" fill="#FF9C49"></path>
        <path d="M16.5999875,0 C16.8210125,0 17,0.1789875 17,0.4000125 L17,0.4000125 L17,18 L8.1999875,18 L8.1999875,0.4000125 C8.1999875,0.1789875 8.378975,0 8.6,0 L8.6,0 Z M10.8000125,8.799975 L9.2,8.799975 L9.2,10.3999875 L10.8000125,10.3999875 L10.8000125,8.799975 Z M13.4,8.799975 L11.7999875,8.799975 L11.7999875,10.3999875 L13.4,10.3999875 L13.4,8.799975 Z M15.9999875,8.799975 L14.4000125,8.799975 L14.4000125,10.3999875 L15.9999875,10.3999875 L15.9999875,8.799975 Z M10.8000125,6.1999875 L9.2,6.1999875 L9.2,7.8 L10.8000125,7.8 L10.8000125,6.1999875 Z M13.4,6.1999875 L11.7999875,6.1999875 L11.7999875,7.8 L13.4,7.8 L13.4,6.1999875 Z M15.9999875,6.1999875 L14.4000125,6.1999875 L14.4000125,7.8 L15.9999875,7.8 L15.9999875,6.1999875 Z M10.8000125,3.6 L9.2,3.6 L9.2,5.2000125 L10.8000125,5.2000125 L10.8000125,3.6 Z M13.4,3.6 L11.7999875,3.6 L11.7999875,5.2000125 L13.4,5.2000125 L13.4,3.6 Z M15.9999875,3.6 L14.4000125,3.6 L14.4000125,5.2000125 L15.9999875,5.2000125 L15.9999875,3.6 Z M10.8000125,1.0000125 L9.2,1.0000125 L9.2,2.600025 L10.8000125,2.600025 L10.8000125,1.0000125 Z M13.4,1.0000125 L11.7999875,1.0000125 L11.7999875,2.600025 L13.4,2.600025 L13.4,1.0000125 Z M15.9999875,1.0000125 L14.4000125,1.0000125 L14.4000125,2.600025 L15.9999875,2.600025 L15.9999875,1.0000125 Z" id="Combined-Shape" fill="#EC6C01"></path>
    </g>
</svg>