<?xml version="1.0" encoding="UTF-8"?>
<svg width="30px" height="30px" viewBox="0 0 30 30" version="1.1" xmlns="http://www.w3.org/2000/svg" xmlns:xlink="http://www.w3.org/1999/xlink">
    <title>ic_edit_member</title>
    <g id="ic_edit_member" stroke="none" stroke-width="1" fill="none" fill-rule="evenodd">
        <path d="M15.38875,6.248 L23.29625,14.183 L10.94875,26.4705 C10.81125,26.628 10.64875,26.758 10.43875,26.818 L10.43875,26.818 L1.43375,29.473 C1.33125,29.5055 1.22375,29.5205 1.11875,29.5205 C0.82625,29.5205 0.54125,29.4055 0.32625,29.193 C0.04125,28.903 -0.07125,28.478 0.04625,28.0855 L0.04625,28.0855 L2.68875,19.048 C2.75375,18.823 2.89625,18.6505 3.06375,18.5155 L3.06375,18.5155 L15.38875,6.248 Z M4.70375,20.1255 L3.20625,25.243 L4.26125,26.3055 L9.29125,24.8205 L8.53375,20.9155 L4.70375,20.1255 Z M21.05175,0.774 C22.08425,-0.2635 23.77175,-0.256 24.81675,0.794 L24.81675,0.794 L28.61175,4.594 C29.65925,5.644 29.66675,7.3415 28.62925,8.379 L28.62925,8.379 L25.57675,11.449 L18.00175,3.8415 Z" id="Combined-Shape" fill="#EC6C01"></path>
    </g>
</svg>