<?xml version="1.0" encoding="UTF-8"?>
<svg width="30px" height="42px" viewBox="0 0 30 42" version="1.1" xmlns="http://www.w3.org/2000/svg" xmlns:xlink="http://www.w3.org/1999/xlink">
    <title>badge</title>
    <g id="badge" stroke="none" stroke-width="1" fill="none" fill-rule="evenodd">
        <path d="M23.999968,1 L23.999968,1.063 L27.011322,1.06396588 L27.011322,5.2438806 L23.999968,5.243 L23.999968,35.358429 C23.999968,38.3899534 22.3614019,40.8630373 20.3061559,40.9945031 L20.133947,41 L3.86598899,41 C1.73082987,41 -3.19829414e-05,38.4741624 -3.19829414e-05,35.358429 L-3.19829414e-05,35.358429 L-3.19829414e-05,5.2838891 C-3.19829414e-05,2.9179759 1.31428502,1 2.93555666,1 L2.93555666,1 L23.999968,1 Z" id="Combined-Shape" fill="#8432FF"></path>
        <path d="M27.0113412,1.06395309 L27.0113412,1.06395309 C28.6378017,1.06395309 29.9563305,2.38241791 29.9563305,4.00887846 L29.9563305,5.2438678 L24.0663518,5.2438678 L24.0663518,4.00887846 C24.0663518,2.38241791 25.3848806,1.06395309 27.0113412,1.06395309" id="Fill-6" fill="#5213B0"></path>
        <path d="M12.32,10.11 L12.32,7.75 L15.52,7.75 L15.52,9.11 L16.21,9.11 L16.21,7.21 L12.32,7.21 L12.32,6.63 L15.63,6.63 L15.63,6.03 L8.37,6.03 L8.37,6.63 L11.62,6.63 L11.62,7.21 L7.8,7.21 L7.8,9.11 L8.47,9.11 L8.47,7.75 L11.62,7.75 L11.62,10.11 L12.32,10.11 Z M15.04,8.79 L15.04,8.3 L12.84,8.3 L12.84,8.79 L15.04,8.79 Z M11.1,8.79 L11.1,8.3 L8.96,8.3 L8.96,8.79 L11.1,8.79 Z M15.28,9.84 L15.28,9.34 L12.84,9.34 L12.84,9.84 L15.28,9.84 Z M11.1,9.84 L11.1,9.34 L8.75,9.34 L8.75,9.84 L11.1,9.84 Z M15.48,14.65 C15.73,14.54 15.79,14.36 15.79,14.03 L15.79,11.75 L12.04,11.75 C12.12,11.53 12.22,11.29 12.3,11.04 L16.35,11.04 L16.35,10.43 L7.68,10.43 L7.68,11.04 L11.54,11.04 C11.48,11.27 11.41,11.52 11.34,11.75 L8.45,11.75 L8.45,14.74 L9.16,14.74 L9.16,12.36 L10.64,12.36 L10.64,14.68 L11.31,14.68 L11.31,12.36 L12.83,12.36 L12.83,14.68 L13.51,14.68 L13.51,12.36 L15.08,12.36 L15.08,14.02 C15.08,14.11 15.05,14.14 14.94,14.15 C14.895,14.15375 14.8204687,14.1560938 14.7237891,14.1570313 L14.5030859,14.1570313 C14.3801563,14.1560938 14.24,14.15375 14.09,14.15 C14.18,14.32 14.28,14.58 14.32,14.76 C14.86,14.76 15.23,14.76 15.48,14.65 Z M9.46,25.74 L9.46,18.95 C9.85,18.3 10.19,17.59 10.48,16.87 L9.78,16.66 C9.21,18.17 8.25,19.65 7.26,20.6 C7.39,20.77 7.6,21.16 7.68,21.32 C8.04,20.95 8.41,20.52 8.75,20.04 L8.75,25.74 L9.46,25.74 Z M13.71,25.77 L13.71,22.64 C14.38,23.73 15.34,24.77 16.24,25.35 C16.37,25.16 16.61,24.89 16.77,24.76 C15.81,24.24 14.8,23.23 14.14,22.18 L16.51,22.18 L16.51,21.5 L13.71,21.5 L13.71,20.26 L15.96,20.26 L15.96,17.1 L10.81,17.1 L10.81,20.26 L12.97,20.26 L12.97,21.5 L10.07,21.5 L10.07,22.18 L12.54,22.18 C11.87,23.24 10.81,24.23 9.78,24.74 C9.95,24.88 10.17,25.15 10.3,25.33 C11.27,24.77 12.27,23.77 12.97,22.67 L12.97,25.77 L13.71,25.77 Z M15.22,19.6 L11.51,19.6 L11.51,17.77 L15.22,17.77 L15.22,19.6 Z M10.73,30.6 C11.1,30.39 11.46,30.16 11.8,29.9 L11.8,30.48 L14.78,30.48 L14.78,29.88 L11.83,29.88 C12.34,29.5 12.8,29.07 13.2,28.61 C14.02,29.35 15.23,30.09 16.25,30.53 C16.31,30.34 16.46,30.04 16.59,29.86 C15.57,29.5 14.32,28.82 13.57,28.12 C13.65,28.01 13.72,27.9 13.79,27.79 L13.07,27.56 C12.51,28.49 11.43,29.48 10.23,30.11 C10.39,30.22 10.62,30.46 10.73,30.6 Z M8.45,36.74 L8.45,28.71 L9.64,28.71 C9.46,29.38 9.18,30.25 8.91,30.96 C9.57,31.75 9.74,32.44 9.74,32.98 C9.74,33.29 9.68,33.56 9.54,33.67 C9.47,33.73 9.36,33.76 9.25,33.76 C9.09,33.77 8.92,33.77 8.69,33.75 C8.81,33.94 8.87,34.22 8.88,34.41 C9.08,34.42 9.32,34.42 9.51,34.4 C9.7,34.37 9.88,34.31 10.01,34.21 C10.27,34.01 10.38,33.58 10.38,33.04 C10.38,32.43 10.22,31.71 9.54,30.89 C9.86,30.09 10.2,29.1 10.48,28.29 L10.02,28 L9.91,28.04 L7.81,28.04 L7.81,36.74 L8.45,36.74 Z M15.9,33.6 L15.9,31.2 L13.62,31.2 L13.62,33.6 L15.9,33.6 Z M13,33.6 L13,31.2 L10.76,31.2 L10.76,33.6 L13,33.6 Z M15.3,33.06 L14.19,33.06 L14.19,31.75 L15.3,31.75 L15.3,33.06 Z M12.4,33.06 L11.33,33.06 L11.33,31.75 L12.4,31.75 L12.4,33.06 Z M13.33,36.77 C13.83,36.41 14.24,35.93 14.54,35.35 C15.13,35.76 15.75,36.27 16.09,36.62 L16.53,36.12 C16.16,35.73 15.44,35.19 14.81,34.79 C14.92,34.52 15,34.22 15.06,33.92 L14.39,33.82 C14.17,34.9 13.64,35.75 12.83,36.28 C12.99,36.4 13.23,36.64 13.33,36.77 Z M10.21,36.8 C10.79,36.4 11.31,35.86 11.71,35.21 C12.09,35.5 12.51,35.83 12.72,36.08 L13.11,35.58 C12.88,35.33 12.41,34.97 11.99,34.71 C12.1,34.48 12.2,34.22 12.28,33.97 L11.61,33.83 C11.29,34.91 10.62,35.77 9.7,36.31 C9.86,36.43 10.11,36.67 10.21,36.8 Z" id="éœ€ä¿éšª" fill="#FFFFFF" fill-rule="nonzero"></path>
    </g>
</svg>