<?xml version="1.0" encoding="UTF-8"?>
<svg width="24px" height="24px" viewBox="0 0 24 24" version="1.1" xmlns="http://www.w3.org/2000/svg" xmlns:xlink="http://www.w3.org/1999/xlink">
    <title>ic_search_bar_serach_w</title>
    <g id="ic_search_bar_serach_w" stroke="none" stroke-width="1" fill="none" fill-rule="evenodd">
        <path d="M16.9931594,14.5672346 L21.8198823,19.4381408 C22.4725013,20.0967338 22.4700538,21.158952 21.8144068,21.8145306 C21.1625641,22.4663051 20.1057736,22.46625 19.453999,21.8144073 C19.4522273,21.8126354 19.4504596,21.8108595 19.4486958,21.8090796 L14.6419595,16.958343 L14.6419595,16.958343 L14.4827672,17.0717153 C12.9592841,18.0237928 11.3711103,18.5021085 9.72442882,18.5021085 C7.31682903,18.5021085 5.25298332,17.6382633 3.55284859,15.9192054 C1.85367202,14.2011164 1,12.1294995 1,9.72351789 C1,7.31700084 1.85410766,5.2539225 3.55423718,3.55397049 C5.2543667,1.85401848 7.31766048,1 9.72442882,1 C12.1311972,1 14.1944909,1.85401848 15.8946205,3.55397049 C17.59475,5.2539225 18.4488576,7.31700084 18.4488576,9.72351789 C18.4488576,11.4034284 17.990553,12.9717027 17.0767021,14.4210501 L16.9931594,14.5672346 Z M14.1568416,5.29156786 C12.9379665,4.07282002 11.4671613,3.46725758 9.72442882,3.46725758 C7.98169629,3.46725758 6.51089109,4.07282002 5.29201599,5.29156786 C4.07314089,6.51031569 3.46751522,7.98096732 3.46751522,9.72351789 C3.46751522,11.4660685 4.07314089,12.9367201 5.29201599,14.1554679 C6.51089109,15.3742158 7.98169629,15.9797782 9.72442882,15.9797782 C11.4671613,15.9797782 12.9379665,15.3742158 14.1568416,14.1554679 C15.4133211,12.8991197 16.0364209,11.4280654 16.0364209,9.72351789 C16.0364209,8.01897035 15.4133211,6.5479161 14.1568416,5.29156786 Z" id="ion-ios-search-strong---Ionicons" fill="#FFFFFF" fill-rule="nonzero"></path>
    </g>
</svg>