<svg width="86" height="20" xmlns="http://www.w3.org/2000/svg">
    <g fill="none" fill-rule="evenodd">
        <rect fill="#EC6C01" width="86" height="20" rx="4"/>
        <path d="m28.996 11.466.004-.014c-1.156 0-1.863-.71-2.713-1.309-.618-.434-1.31-.81-2.308-.81-.448 0-.828.004-1.15.014h-2.35a.625.625 0 0 0-.623.627c0 .347.279.628.622.628h2.207a.942.942 0 0 1 .3 1.754l-.858.23c-.29.07-.566.144-.825.22l-.056.014c-.969.259-2.012.536-2.202.58a1.16 1.16 0 0 1-.34-.024l-3.476-2.271-.63-.46v.002a.803.803 0 0 0-.095-.054.858.858 0 0 0-.585-.08 1.005 1.005 0 0 0-.62 1.715v.001l.005.004c.072.071.155.133.246.18l.24.176 5.449 3.981.067.026c.123.043.252.07.389.07.08 0 .158-.008.233-.023l.028-.007c1.846-.474 5.66-1.45 7.446-1.895l.129-.048c.455-.115 1.076-.252 1.466-.252v-.263H29l-.004-.361v-2.351z" fill="#FFF" opacity=".2"/>
        <path d="M17.667 4.766c-.11 0-.21-.07-.256-.179-.309-.739-.993-1.254-1.785-1.254-.54 0-1.029.239-1.385.626a2.219 2.219 0 0 0-.574 1.506c0 .248.039.486.11.707a2.199 2.199 0 0 0 .583.918l.017.017 3.295 3.56 3.418-3.693.004-.005c.201-.22.358-.486.457-.782.075-.225.116-.468.116-.722 0-.588-.22-1.12-.575-1.506a1.878 1.878 0 0 0-1.385-.626c-.792 0-1.476.515-1.785 1.254a.28.28 0 0 1-.255.18z" fill="#FFF" opacity=".2"/>
        <path d="M23.98 9.697c.908 0 1.536.35 2.097.744.145.101.285.206.424.31.651.488 1.284.94 2.135 1.043l-.004 1.912c-.318.437-.79.534-1.144.623l-4.827 1.238-2.64.677-6.018-3.95c-.485-.391-.64-.562-.64-.778l1.69-.091 3.541 2.315c.428.02 1.364-.205 2.315-.454l.437-.116c.31-.089.58-.162.874-.233l.86-.23c.894-1.63.617-1.816.446-2.019a1.3 1.3 0 0 0-.813-.45h-.781l.993-.53c.3-.008.65-.011 1.054-.011z" stroke="#FFF" stroke-width=".727"/>
        <path d="M17.667 4.766c-.11 0-.21-.07-.256-.179-.309-.739-.993-1.254-1.785-1.254-.54 0-1.029.239-1.385.626a2.219 2.219 0 0 0-.574 1.506c0 .248.039.486.11.707a2.199 2.199 0 0 0 .583.918l.017.017 3.295 3.56 3.418-3.693.004-.005c.201-.22.358-.486.457-.782.075-.225.116-.468.116-.722 0-.588-.22-1.12-.575-1.506a1.878 1.878 0 0 0-1.385-.626c-.792 0-1.476.515-1.785 1.254a.28.28 0 0 1-.255.18z" stroke="#FFF" stroke-width=".8"/>
        <text font-family="PingFangTC-Regular, PingFang TC" font-size="10" fill="#FFF" transform="translate(13 2)">
                            <tspan x="20" y="11.5">數位捐款</tspan>
                        </text>
    </g>
</svg>
