<?xml version="1.0" encoding="UTF-8"?>
<svg width="24px" height="24px" viewBox="0 0 24 24" version="1.1" xmlns="http://www.w3.org/2000/svg" xmlns:xlink="http://www.w3.org/1999/xlink">
    <title>ic_event_select</title>
    <g id="ic_event_select" stroke="none" stroke-width="1" fill="none" fill-rule="evenodd">
        <path d="M20.7402168,17.0666667 C21.1118355,17.0666667 21.413114,17.3651556 21.413114,17.7333333 L21.413114,17.7333333 L21.413114,19.3333333 C21.413114,19.7015111 21.1118355,20 20.7402168,20 L20.7402168,20 L3.33460935,20 C2.96299065,20 2.66171215,19.7015111 2.66171215,19.3333333 L2.66171215,19.3333333 L2.66171215,17.7333333 C2.66171215,17.3651556 2.96299065,17.0666667 3.33460935,17.0666667 L3.33460935,17.0666667 Z M12,4 C12.779215,4 13.4130841,4.628 13.4130841,5.4 C13.4130841,5.7744 13.2630729,6.11422222 13.0205607,6.36568889 C13.0213682,6.36675556 13.0223551,6.36764444 13.0231626,6.3688 L16.0470729,10.3784 C16.5189981,11.0041778 17.2713869,11.3777778 18.0599327,11.3777778 C18.7310355,11.3777778 19.3621234,11.1188444 19.8366505,10.6486222 L21.7017421,8.8008 C21.3802766,8.54391111 21.1738318,8.1512 21.1738318,7.71111111 C21.1738318,6.93911111 21.8077009,6.31111111 22.5869159,6.31111111 C23.3661308,6.31111111 24,6.93911111 24,7.71111111 C24,8.32008889 23.604785,8.83804444 23.0557009,9.03022222 C23.0593794,9.09564444 23.0545346,9.16222222 23.0379364,9.22835556 L21.5575626,15.0950222 C21.4829159,15.3905778 21.2155514,15.5984 20.908172,15.6 L12.025929,15.6444444 L3.14018692,15.6444444 C2.83119252,15.6444444 2.56194393,15.4359111 2.4872972,15.1388444 L1.00692336,9.24995556 C0.989876636,9.18204444 0.984942056,9.1136 0.989248598,9.04648889 C0.416568224,8.86773333 0,8.3368 0,7.71111111 C0,6.93911111 0.633869159,6.31111111 1.41308411,6.31111111 C2.19229907,6.31111111 2.82616822,6.93911111 2.82616822,7.71111111 C2.82616822,8.14586667 2.62510654,8.53484444 2.31028037,8.79182222 L4.16370841,10.6419556 C4.63213458,11.1096 5.28215327,11.3776889 5.94715514,11.3776889 C6.73345794,11.3776889 7.48315514,11.0077333 7.95525981,10.3879111 L11.0012411,6.38933333 C10.7453607,6.136 10.5869159,5.78595556 10.5869159,5.4 C10.5869159,4.628 11.220785,4 12,4 Z" id="Combined-Shape" fill="#EC6C01"></path>
    </g>
</svg>