<?xml version="1.0" encoding="UTF-8"?>
<svg width="24px" height="24px" viewBox="0 0 24 24" version="1.1" xmlns="http://www.w3.org/2000/svg" xmlns:xlink="http://www.w3.org/1999/xlink">
    <title>ic_money_select</title>
    <g id="ic_money_select" stroke="none" stroke-width="1" fill="none" fill-rule="evenodd">
        <path d="M16.469107,11 C17.9644514,11 19.0035331,11.5638353 19.9299188,12.2151881 C21.2053863,13.1125263 22.2664919,14.1779143 24,14.1779143 L24,14.1779143 L23.9932513,14.1990165 L23.9932513,17.7253187 L24,18.2668814 L23.9932513,18.2675032 L23.9932513,18.6620453 C23.4088359,18.6620453 22.4777697,18.8673256 21.7945185,19.0401664 C21.7293537,19.0645601 21.6673092,19.0876372 21.6008019,19.1119944 C18.9233832,19.7776104 13.20125,21.2435018 10.4322522,21.9538823 L10.4322522,21.9538823 L10.3911432,21.9646711 C10.2783747,21.98709 10.1615061,22 10.0409729,22 C9.83513767,22 9.64167502,21.9579053 9.4572832,21.893538 C9.42364856,21.8799697 9.39005021,21.8670597 9.35641557,21.8542593 L9.35641557,21.8542593 L9.35641557,21.8555759 L1.18287246,15.8832811 L0.823667609,15.6195948 C0.686589232,15.5490468 0.562717983,15.4562628 0.453831745,15.349106 L0.453831745,15.349106 L0.446321098,15.3436567 C0.172708595,15.0691815 0,14.6937667 0,14.2735875 C0,13.4798221 0.606693365,12.8359665 1.37709706,12.7689661 C1.46450358,12.7506068 1.55528444,12.741098 1.6488954,12.741098 C1.71794255,12.741098 1.78597378,12.7478638 1.85244482,12.7580309 C1.91579549,12.7675032 1.97762226,12.7804498 2.03730832,12.7986994 C2.11335816,12.8217399 2.18527169,12.8537041 2.25460912,12.889545 C2.30370044,12.9139021 2.35130416,12.9396856 2.39629547,12.9701869 L2.39629547,12.9701869 L2.39629547,12.9689069 L3.3412945,13.6574538 L8.55498964,17.0645302 C8.70705302,17.1024557 8.87823772,17.1106479 9.06651186,17.1004808 C9.32210244,17.0400816 10.6153771,16.6974587 11.9314285,16.3469559 L12.3695637,16.2302061 L12.452834,16.2078238 C12.8407752,16.0953274 13.2545139,15.9834893 13.6900225,15.8777953 C14.3665976,15.6975304 14.8721693,15.5619934 14.9776812,15.5333938 C15.4108678,15.2928212 15.70596,14.8333998 15.70596,14.2992612 C15.70596,13.5950248 15.1962156,13.0129765 14.5279495,12.902455 L14.5279495,12.902455 L11.2176772,12.902455 C10.7020187,12.902455 10.2835269,12.4815809 10.2835269,11.9616689 C10.2835269,11.4418667 10.7020187,11.0203342 11.2176772,11.0203342 L11.2176772,11.0203342 L14.7436175,11.0203342 C15.2272379,11.0060344 15.7972125,11 16.469107,11 Z M10.061665,1.4 C11.0232316,1.40093896 11.9199175,1.81413239 12.5802186,2.53217378 C13.2307699,3.24080384 13.6,4.18876594 13.6,5.19796126 C13.6,5.63754307 13.5305842,6.06578718 13.3958094,6.46997347 C13.2227277,6.99077057 12.9446215,7.46484461 12.5398096,7.90128081 L12.5398096,7.90128081 L12.595,7.84 L12.5758385,7.86819218 L7.00821039,13.8832871 L1.64482785,8.08779471 L1.49652127,7.94289665 C1.40721287,7.85131923 1.32168469,7.75416097 1.23934528,7.65070644 C0.957269107,7.29229971 0.738303831,6.88295659 0.595878114,6.44376893 C0.46667422,6.0465249 0.4,5.62665299 0.4,5.19796126 C0.4,4.18819531 0.76925584,3.24016719 1.42050974,2.53180342 C2.08047051,1.81413239 2.9771564,1.40093896 3.93930869,1.4 C5.21723221,1.4 6.36514836,2.13512526 6.99044112,3.27471225 L6.99044112,3.27471225 L6.999,3.292 L7.11843575,3.08859802 C7.72739524,2.11283716 8.73376423,1.47421786 9.86037539,1.4060589 L9.86037539,1.4060589 Z" id="Combined-Shape" fill="#EC6C01"></path>
    </g>
</svg>