<?xml version="1.0" encoding="UTF-8"?>
<svg width="24px" height="24px" viewBox="0 0 24 24" version="1.1" xmlns="http://www.w3.org/2000/svg" xmlns:xlink="http://www.w3.org/1999/xlink">
    <title>ic_money</title>
    <g id="ic_money" stroke="none" stroke-width="1" fill="none" fill-rule="evenodd">
        <path d="M16.469107,11 C17.9644514,11 19.0035331,11.5638353 19.9299188,12.2151881 C21.2053863,13.1125263 22.2664919,14.1779143 24,14.1779143 L24,14.1779143 L23.9932513,14.1990165 L23.9932513,17.7253187 L24,18.2668814 L23.9932513,18.2675032 L23.9932513,18.6620453 C23.4088359,18.6620453 22.4777697,18.8673256 21.7945185,19.0401664 C21.7293537,19.0645601 21.6673092,19.0876372 21.6008019,19.1119944 C18.9233832,19.7776104 13.20125,21.2435018 10.4322522,21.9538823 L10.4322522,21.9538823 L10.3911432,21.9646711 C10.2783747,21.98709 10.1615061,22 10.0409729,22 C9.83513767,22 9.64167502,21.9579053 9.4572832,21.893538 C9.42364856,21.8799697 9.39005021,21.8670597 9.35641557,21.8542593 L9.35641557,21.8542593 L9.35641557,21.8555759 L1.18287246,15.8832811 L0.823667609,15.6195948 C0.686589232,15.5490468 0.562717983,15.4562628 0.453831745,15.349106 L0.453831745,15.349106 L0.446321098,15.3436567 C0.172708595,15.0691815 0,14.6937667 0,14.2735875 C0,13.4798221 0.606693365,12.8359665 1.37709706,12.7689661 C1.46450358,12.7506068 1.55528444,12.741098 1.6488954,12.741098 C1.71794255,12.741098 1.78597378,12.7478638 1.85244482,12.7580309 C1.91579549,12.7675032 1.97762226,12.7804498 2.03730832,12.7986994 C2.11335816,12.8217399 2.18527169,12.8537041 2.25460912,12.889545 C2.30370044,12.9139021 2.35130416,12.9396856 2.39629547,12.9701869 L2.39629547,12.9701869 L2.39629547,12.9689069 L3.3412945,13.6574538 L8.55498964,17.0645302 C8.70705302,17.1024557 8.87823772,17.1106479 9.06651186,17.1004808 C9.32210244,17.0400816 10.6153771,16.6974587 11.9314285,16.3469559 L12.3695637,16.2302061 L12.452834,16.2078238 C12.8407752,16.0953274 13.2545139,15.9834893 13.6900225,15.8777953 C14.3665976,15.6975304 14.8721693,15.5619934 14.9776812,15.5333938 C15.4108678,15.2928212 15.70596,14.8333998 15.70596,14.2992612 C15.70596,13.5950248 15.1962156,13.0129765 14.5279495,12.902455 L14.5279495,12.902455 L11.2176772,12.902455 C10.7020187,12.902455 10.2835269,12.4815809 10.2835269,11.9616689 C10.2835269,11.4418667 10.7020187,11.0203342 11.2176772,11.0203342 L11.2176772,11.0203342 L14.7436175,11.0203342 C15.2272379,11.0060344 15.7972125,11 16.469107,11 Z M10.0610793,2 C10.8718919,2.00079151 11.604585,2.35763027 12.1382287,2.93793848 C12.6710965,3.51837861 13,4.31529652 13,5.19796126 C13,5.57907297 12.9390824,5.9429034 12.82643,6.28074594 C12.6787273,6.72517839 12.4425583,7.12449481 12.1402981,7.45363075 C12.1382287,7.4554776 12.1374527,7.45798405 12.1355127,7.46062241 L12.1355127,7.46062241 L7.00821289,13 L2.06534743,7.65981891 L2.0406441,7.63554596 C1.92346493,7.52724111 1.81352863,7.40864664 1.71083519,7.27963063 C1.47557151,6.98070396 1.28867979,6.63507825 1.16645649,6.25818792 C1.05858958,5.92654554 1,5.56957486 1,5.19796126 C1,4.31529652 1.32851554,3.51837861 1.86215928,2.93793848 C2.39580302,2.35763027 3.12849614,2.00079151 3.93930869,2 C5.12765545,2 6.15355515,2.77264496 6.61709833,3.88049409 C6.68564685,4.04328117 6.83490154,4.14907957 7.00019401,4.14907957 C7.16471045,4.14907957 7.31448249,4.04328117 7.38251366,3.88049409 C7.84644485,2.77264496 8.87195654,2 10.0610793,2 Z" id="Combined-Shape" fill="#FFFFFF" opacity="0.2"></path>
        <path d="M16.469107,11.5454545 C17.8315527,11.5454545 18.7737828,12.0690821 19.6160631,12.6612994 C19.8325178,12.8135833 20.0426289,12.9708664 20.2509972,13.1267504 C21.1642098,13.8099412 22.0525554,14.4486178 23.2077983,14.6544506 L23.2077983,14.6544506 L23.4480601,17.7498483 C22.9794579,18.1926343 22.3695209,18.3347181 21.8626449,18.4608668 C19.8149216,18.9860764 16.8086279,19.7564773 14.1576554,20.4358227 C12.8544378,20.7697887 11.6370869,21.0817503 10.6858155,21.3256735 C10.050626,21.4170896 9.84190328,21.4284675 9.70227008,21.3973258 L9.70227008,21.3973258 L1.51455391,15.450041 C0.779258144,14.856814 0.545454545,14.5997963 0.545454545,14.2735875 C0.545454545,14.0216491 0.640780137,13.7931514 0.797516754,13.6219004 C0.928489147,13.4787994 1.10206098,13.3755439 1.2979963,13.3318483 L1.2979963,13.3318483 L3.07814344,14.1370825 L8.32509079,17.5658887 C8.54865305,17.637901 8.80653303,17.6607693 9.09592441,17.6451417 C9.40735006,17.5793711 10.4561288,17.3036271 11.6108531,16.9966761 L12.0768966,16.8726551 C12.8274471,16.6649677 13.2370932,16.5533513 13.6024169,16.4613336 L13.8186651,16.407863 C14.5082204,16.22428 15.0146825,16.0885014 15.1203803,16.0598515 C15.5481994,15.840478 15.8040442,15.5918252 15.9815411,15.2910411 C16.1526618,15.0010619 16.2514145,14.6626854 16.2514145,14.2992612 C16.2514145,13.8495054 16.1008933,13.4359155 15.8483462,13.1056808 C15.574568,12.7476841 15.1804642,12.4879955 14.7271779,12.3858267 L14.7271779,12.3858267 L11.2176772,12.3570005 L14.7521871,11.5657746 C15.2329045,11.5514468 15.7999901,11.5454545 16.469107,11.5454545 Z M3.93930869,1.94545455 C4.88913415,1.94545455 5.74899025,2.43217145 6.30121369,3.20184816 L6.4147593,3.37103565 L6.659,3.851 L6.56630051,3.90040582 C6.3622543,3.41274057 6.05301447,3.00138221 5.67844832,2.69224415 L5.51403663,2.56609034 C5.05263372,2.23756867 4.50871973,2.05454517 3.93989441,2.05454517 C3.17123766,2.05529527 2.44762739,2.38185636 1.90235523,2.97480983 C1.36568778,3.55853881 1.05454545,4.34674127 1.05454545,5.19796126 C1.05454545,5.55886426 1.11064771,5.91025045 1.2184875,6.24181034 C1.33269169,6.59397343 1.49613763,6.92875093 2.10041362,7.61740524 L2.10041362,7.61740524 L7.00863736,12.9196365 L12.2565038,7.23242844 L12.3848935,7.05622905 C12.548305,6.81479078 12.6801525,6.54793828 12.7748568,6.26297679 C12.8869934,5.92668215 12.9454545,5.56868713 12.9454545,5.19796126 C12.9454545,4.34737997 12.6343128,3.55896687 12.0983883,2.97519667 C11.5527524,2.38184739 10.8291442,2.05529526 10.0610261,2.05454543 C9.4914233,2.05454517 8.94750803,2.23748523 8.48610925,2.56584786 C8.24469544,2.73765429 8.02584926,2.94953222 7.70365516,3.19552308 C8.18340111,2.5301396 8.8919218,2.07825642 9.69032656,1.97037499 C10.8460679,1.95561528 11.6158719,2.28932196 12.1784096,2.90105078 C12.7389412,3.51162451 13.0545455,4.32906458 13.0545455,5.19796126 C13.0545455,5.57788236 12.9948569,5.94807176 12.8781917,6.29794844 C12.7768293,6.60294483 12.6333328,6.88915738 12.4421587,7.15925137 L12.289752,7.35884128 L12.01,7.676 L7.00824694,13.0802618 L2.03568333,7.70707534 C1.4254179,7.00517431 1.2371994,6.65315297 1.11458573,6.27505892 C1.00287891,5.93161055 0.945454545,5.56857512 0.945454545,5.19796126 C0.945454545,4.32868398 1.26097277,3.51125218 1.82200932,2.90101711 C2.37691203,2.29759095 3.12975668,1.94624484 3.93930869,1.94545455 Z" id="Combined-Shape" stroke="#FFFFFF" stroke-width="1.09090909"></path>
    </g>
</svg>