<?xml version="1.0" encoding="UTF-8"?>
<svg width="24px" height="24px" viewBox="0 0 24 24" version="1.1" xmlns="http://www.w3.org/2000/svg" xmlns:xlink="http://www.w3.org/1999/xlink">
    <title>ic_volunteer_company_select</title>
    <g id="ic_volunteer_company_select" stroke="none" stroke-width="1" fill="none" fill-rule="evenodd">
        <path d="M15.296839,12.55 L22.45,12.55 L22.45,20.15 C22.45,20.6056349 22.2653175,21.0181349 21.9667262,21.3167262 C21.6681349,21.6153175 21.2556349,21.8 20.8,21.8 L20.8,21.8 L3.2,21.8 C2.74436508,21.8 2.33186508,21.6153175 2.03327381,21.3167262 C1.73468254,21.0181349 1.55,20.6056349 1.55,20.15 L1.55,20.15 L1.55,12.55 L8.7,12.55 C8.7,13.4230879 8.85928208,13.8089522 9.12105141,14.1010083 C9.39245549,14.4038138 9.77421217,14.605416 10.202847,14.6434948 L10.202847,14.6434948 L13.65,14.65 C14.0730879,14.65 14.4589522,14.4907179 14.7510083,14.2289486 C15.0535381,13.9577916 15.2550488,13.5764828 15.2933904,13.1483236 L15.2933904,13.1483236 L15.296839,12.55 Z M20.8,5.3 C21.2556349,5.3 21.6681349,5.48468254 21.9667262,5.78327381 C22.2279936,6.04454117 22.4020495,6.39301991 22.4414812,6.78129708 L22.45,6.95 L22.45,10.45 L15.2363493,10.45 C15.1718454,10.1864756 15.0618757,9.96225966 14.9229625,9.77892878 C14.679826,9.45804892 14.3443102,9.25287928 13.963207,9.17972637 L13.7972225,9.15650531 L10.35,9.15 C9.92691213,9.15 9.54104778,9.30928208 9.24899175,9.57105141 C9.10768122,9.6977078 8.98841092,9.84839698 8.8975146,10.0166679 L8.83476144,10.1460668 L1.55,10.4282803 L1.55,6.95 C1.55,6.49436508 1.73468254,6.08186508 2.03327381,5.78327381 C2.29454117,5.52200645 2.64301991,5.34795046 3.03129708,5.30851876 L3.2,5.3 L20.8,5.3 Z" id="Combined-Shape" stroke="#EC6C01" stroke-width="1.1" fill="#EC6C01"></path>
    </g>
</svg>