<?xml version="1.0" encoding="UTF-8"?>
<svg width="24px" height="24px" viewBox="0 0 24 24" version="1.1" xmlns="http://www.w3.org/2000/svg" xmlns:xlink="http://www.w3.org/1999/xlink">
    <title>ic_volunteer_select</title>
    <g id="ic_volunteer_select" stroke="none" stroke-width="1" fill="none" fill-rule="evenodd">
        <path d="M17.061828,13.6005404 C19.6346541,14.5936009 21.4850554,17.0333999 21.5948384,19.9225838 L21.6,20.1947309 L21.6,20.6508444 C21.6,22.0023238 20.5454173,23.1082646 19.2123288,23.1945774 L19.0442983,23.2 L4.95570167,23.2 C3.60075176,23.2 2.49197102,22.1481184 2.40543648,20.8184445 L2.4,20.6508444 L2.4,20.1947309 C2.4,17.1867597 4.28602873,14.6235533 6.93979739,13.6 C8.36691594,14.7602792 10.1375399,15.3925692 12.0029799,15.3925692 C13.8705872,15.3925692 15.6395857,14.7608196 17.061828,13.6005404 Z M12.0025002,0.2666668 C15.8314666,0.2666668 18.9333332,3.36965304 18.9333332,7.2 C18.9333332,8.38077365 18.6370633,9.51970231 18.0807094,10.5313744 C17.8653304,10.9246255 17.611258,11.2966696 17.3215165,11.6439726 C17.177221,11.8160144 17.0258166,11.9803382 16.8687423,12.1353438 C16.7128137,12.2902585 16.5493513,12.4374844 16.3795797,12.5759609 C16.2309259,12.6976091 16.0722798,12.8138356 15.8947667,12.9326833 L15.599226,13.1230881 L15.4286654,13.227468 L15.2818373,13.3100358 C14.8892758,13.5216821 14.4758896,13.6948687 14.0465305,13.8270827 C13.4990407,13.9955848 12.9305424,14.095924 12.3512727,14.1246898 L12.0025002,14.1333332 L12.0025002,14.1333332 C11.3026977,14.1333332 10.6154577,14.0292852 9.95839481,13.8270596 C9.52899308,13.6948325 9.11521374,13.521652 8.72365533,13.3108373 L8.64765401,13.2692209 L8.49167843,13.1774736 L8.29232619,13.0524955 C8.03818686,12.8915047 7.82133555,12.738732 7.62322392,12.5770242 C7.45314902,12.4387398 7.28937564,12.2918443 7.13138215,12.1359632 C6.97092844,11.9770779 6.81938612,11.8126045 6.67758384,11.642897 C6.38917295,11.2971861 6.13510023,10.9253404 5.91912523,10.5319846 C5.41335681,9.6113775 5.12265624,8.58648184 5.07398149,7.52084856 L5.0666668,7.2 L5.07068958,6.96162129 C5.19639932,3.24249933 8.25249565,0.2666668 12.0025002,0.2666668 Z" id="Combined-Shape" fill="#EC6C01" fill-rule="nonzero"></path>
    </g>
</svg>