<?xml version="1.0" encoding="UTF-8"?>
<svg width="130px" height="41px" viewBox="0 0 130 41" version="1.1" xmlns="http://www.w3.org/2000/svg" xmlns:xlink="http://www.w3.org/1999/xlink">
    <title>Header /logo</title>
    <defs>
        <linearGradient x1="16.9315496%" y1="3.02382543%" x2="86.8481263%" y2="96.9761746%" id="linearGradient-1">
            <stop stop-color="#FCCF00" offset="0%"></stop>
            <stop stop-color="#F29500" offset="56.1302265%"></stop>
            <stop stop-color="#EF8201" offset="100%"></stop>
        </linearGradient>
        <path d="M32.758251,9.6951471 C32.9892901,9.87177328 33.212556,10.0635142 33.4245938,10.2695061 C33.9134467,10.7346073 34.3470229,11.2614629 34.7115034,11.8375493 C35.0751201,12.4132038 35.3705047,13.0367935 35.5829744,13.6919082 C35.7738516,14.2654035 35.8990877,14.8678327 35.9474548,15.4888313 C35.9699109,15.7077787 35.9841619,15.9262942 35.9910715,16.1417868 C36.0397745,17.0170964 35.917364,17.8281406 35.7506295,18.6490829 L35.5998165,19.3569015 C35.5233792,19.61817 35.4339865,19.8768475 35.335525,20.132502 C35.2361997,20.3885884 35.1273738,20.64122 35.0103428,20.8903968 C34.8743104,21.1888043 34.7248907,21.4790067 34.5646748,21.7605722 C34.3535007,22.1362807 34.1220297,22.4960108 33.8750121,22.8406262 C33.6284265,23.1861053 33.369749,23.5173333 33.0937976,23.8304238 C32.5449177,24.4591957 31.9446478,25.0201673 31.3223536,25.5379541 L31.1429914,25.7705977 L31.0176312,25.9460303 L30.9549302,26.0396665 L30.9549302,26.0396665 L30.8438211,26.224114 C30.8118722,26.2830133 30.7862852,26.3380261 30.7708826,26.3852416 C30.3020181,27.6849832 30.6187308,28.6369896 31.143436,29.6134515 L31.3488219,29.981498 L31.7910175,30.7419155 L32.01429,31.1430098 C32.1613654,31.416501 32.3033908,31.7031517 32.4313414,32.0087773 C33.1340795,33.686906 33.3009101,34.986866 33.2812618,35.8916043 L33.2756844,36.0304787 C32.1967702,36.6474094 30.9472534,37 29.6153846,37 L26.8898118,36.9991092 L26.9142255,36.662176 C26.9218571,36.5476762 26.9288582,36.4349035 26.9352433,36.3238329 L26.9662775,35.6776316 L26.9832207,35.0710678 C26.9950376,34.3860613 26.9795006,33.7795098 26.9415623,33.242762 L26.9036733,32.7995855 C26.8605294,32.3731002 26.801967,31.9960832 26.7311053,31.6630865 L26.6562592,31.3445615 C26.6431401,31.2938523 26.6297081,31.2443155 26.6159779,31.1959257 L26.530132,30.919151 C26.2476815,30.0850101 25.8679585,29.6467682 25.4900038,29.4314243 L25.3708239,29.3706285 L25.2524548,29.3234408 L25.1355894,29.2886504 L25.0209209,29.2650466 L24.9091423,29.2514188 C24.8907918,29.2499116 24.8725907,29.2487696 24.8545533,29.2479676 L24.2037571,29.4833252 L23.1457274,29.8547152 L22.5936626,30.0995735 L22.4016518,30.1881026 C22.2772794,30.249857 22.1464291,30.3064291 22.0285344,30.3729339 L21.8082915,30.4916923 C21.8739325,30.5638111 21.9318003,30.6329069 21.9866451,30.7058893 C22.0889933,30.8371714 22.1822726,30.9762267 22.2673468,31.1208961 C22.3532848,31.2655655 22.4284265,31.4171444 22.495363,31.5721781 C22.5631633,31.7263482 22.6145533,31.8891552 22.6590337,32.0536896 C22.7035142,32.218224 22.7311525,32.3870769 22.7484265,32.5576572 C22.7678596,32.7265101 22.7648367,32.8996815 22.749722,33.0689663 C22.7359028,33.2386829 22.7026505,33.4049447 22.6521242,33.5651606 C22.6028934,33.724081 22.5363887,33.8756599 22.4534737,34.0142834 C22.3748772,34.1542024 22.2790067,34.2815978 22.175363,34.3956059 C22.1071309,34.4733387 22.0312215,34.541091 21.9535207,34.6047487 L21.8363617,34.6979001 L21.8601134,34.6672389 L21.8216788,34.6979001 C21.9166856,34.5787099 22.0073738,34.458224 22.0807881,34.3265101 C22.1567935,34.198251 22.2202753,34.0626505 22.2651876,33.9218677 C22.312691,33.7815169 22.3437841,33.6385749 22.3588988,33.4943374 C22.3761727,33.3505317 22.3796275,33.206726 22.3653765,33.0650796 C22.3532848,32.9230013 22.3286694,32.783946 22.2910985,32.6483455 C22.2530958,32.5127449 22.2086154,32.3801673 22.1498839,32.2540675 C22.035444,32.001004 21.886888,31.7665101 21.7145803,31.5570634 C21.5856734,31.3999784 21.4414629,31.2586829 21.2896005,31.132448 L21.135471,31.0112065 L21.052556,30.9516113 L20.9705047,31.0112065 C20.7619217,31.1662402 20.5628394,31.3476167 20.3909636,31.5570634 C20.2190877,31.7665101 20.0709636,32.001004 19.9556599,32.2540675 C19.8964966,32.3801673 19.8520162,32.5127449 19.8144453,32.6483455 C19.7773063,32.783946 19.7522591,32.9230013 19.7401673,33.0650796 C19.7263482,33.206726 19.729803,33.3505317 19.7466451,33.4943374 C19.7617598,33.6385749 19.7928529,33.7815169 19.8407881,33.9218677 C19.8857004,34.0626505 19.9491822,34.198251 20.0247557,34.3265101 C20.09817,34.458224 20.1888583,34.5787099 20.283865,34.6979001 L20.2454305,34.6672389 L20.269614,34.6979001 C20.1521511,34.6063482 20.0320972,34.5122051 19.9306127,34.3956059 C19.8265371,34.2815978 19.7310985,34.1542024 19.6520702,34.0142834 C19.569587,33.8756599 19.5022186,33.724081 19.4534197,33.5651606 C19.4024615,33.4049447 19.3700729,33.2386829 19.3558219,33.0689663 C19.3407072,32.8996815 19.3376842,32.7265101 19.3571174,32.5576572 C19.3743914,32.3870769 19.4020297,32.218224 19.4465101,32.0536896 C19.4909906,31.8891552 19.5428124,31.7263482 19.6101808,31.5721781 C19.6771174,31.4171444 19.7522591,31.2655655 19.8386289,31.1208961 C19.9232713,30.9762267 20.0165506,30.8371714 20.1184669,30.7058893 L20.2035951,30.5991147 L20.2976842,30.4916923 L20.0774413,30.3729339 C19.9591147,30.3064291 19.8282645,30.249857 19.7043239,30.1881026 L19.3186829,30.0123401 L18.9598165,29.8547152 L17.9017868,29.4833252 L17.2509906,29.2479676 L17.1409599,29.2570614 L17.0276865,29.2755258 L16.9118637,29.3045716 L16.7941851,29.3454093 C16.7744559,29.3532656 16.7546782,29.3616635 16.7348666,29.3706285 L16.6157044,29.4314243 C16.5958146,29.4427582 16.5759197,29.4547095 16.5560342,29.4673035 L16.4369487,29.5507814 C16.397368,29.5813125 16.3579403,29.6146161 16.3187812,29.6508939 L16.2022251,29.7688519 C16.0481995,29.9385641 15.9003201,30.1590926 15.7659839,30.4433512 L15.6678866,30.6686964 C15.5884477,30.8667781 15.5150213,31.0910155 15.4494134,31.3445615 L15.3745525,31.6630865 L15.3078907,32.0109584 C15.2975022,32.0714499 15.2874842,32.1332146 15.2778512,32.1962778 L15.2247885,32.59044 C15.2087178,32.7271557 15.1943027,32.869267 15.1816586,33.0169757 L15.149155,33.4770957 L15.1279711,33.9720106 C15.1177759,34.3138212 15.1155894,34.6796355 15.1223364,35.0710678 L15.1392725,35.6776316 C15.1432504,35.781995 15.1478155,35.8880101 15.1529823,35.9957019 L15.1913187,36.662176 L15.2148118,36.9991092 L12.3846154,37 C11.0968876,37 9.88614352,36.6703933 8.83214708,36.0909437 L8.82939811,36.0471579 C8.78675304,35.1384939 8.93012686,33.7856194 9.67420243,32.0087773 C9.80215307,31.7031517 9.94418728,31.416501 10.0912778,31.1430098 L10.3145773,30.7419155 L10.7568478,29.981498 L10.9622779,29.6134515 C11.4871039,28.6369896 11.8039576,27.6849832 11.3350931,26.3852416 C11.304,26.2908106 11.2323131,26.1651906 11.1505497,26.0396665 L11.0241619,25.855363 L10.8563077,25.6305047 L10.7831903,25.5379541 C10.1608961,25.0201673 9.56062618,24.4591957 9.01131444,23.8304238 C8.73622672,23.5173333 8.47668556,23.1861053 8.23096356,22.8406262 C7.98394602,22.4960108 7.75204318,22.1362807 7.5408691,21.7605722 C7.38022132,21.4790067 7.23123347,21.1888043 7.09563293,20.8903968 C6.97773819,20.64122 6.86934413,20.3885884 6.76958704,20.132502 C6.67155735,19.8768475 6.58216464,19.61817 6.5057274,19.3569015 C6.27252901,18.2863482 6.0522861,17.2671849 6.11447233,16.1417868 C6.12051822,15.9262942 6.13520108,15.7077787 6.15808907,15.4888313 C6.20645614,14.8678327 6.33169231,14.2654035 6.5225695,13.6919082 C6.73503914,13.0367935 7.0299919,12.4132038 7.39404049,11.8375493 C7.75852092,11.2614629 8.19209717,10.7346073 8.68138192,10.2695061 C8.89298785,10.0635142 9.11625371,9.87177328 9.3477247,9.6951471 C12.1158758,7.6054305 16.3341754,7.3225695 19.0077517,9.6951471 C19.2655655,9.92532254 19.5017868,10.1788178 19.7146883,10.4547692 C20.1404912,11.0058084 20.4665371,11.644081 20.6591417,12.3605182 C20.4600594,12.0690202 20.2437031,11.7947962 20.0118003,11.5374143 C19.8566226,11.3658264 19.6943434,11.2021077 19.5258583,11.0463862 L19.2685884,10.8188178 C16.4637301,8.23506613 11.7535547,8.57968151 9.3477247,11.7477247 C9.18362213,11.969695 9.03247503,12.2050526 8.89817004,12.4520702 C8.64381107,12.9020567 8.44818354,13.3848637 8.32424291,13.8935816 C8.24564642,14.1380081 8.17870985,14.3876167 8.1242969,14.6389528 C8.01633468,15.1429204 7.96019433,15.6589798 7.95760324,16.1728799 C7.94076113,16.644027 7.96451282,17.1164696 8.0271309,17.5815709 C8.09147638,18.0466721 8.19555196,18.5057274 8.34065317,18.9500999 C8.40111201,19.1306127 8.46905623,19.3086304 8.54410196,19.4831293 L8.66194872,19.7421107 C8.80273144,20.0698839 8.96251552,20.3898839 9.13482321,20.7021107 C9.3071309,21.0152011 9.49930364,21.3174953 9.70615924,21.6102888 C9.91042375,21.9052416 10.1319622,22.1885344 10.3647287,22.4631903 C10.8250796,23.0176842 11.341139,23.5264022 11.8857004,24.0031633 L12.3015709,24.3538246 L12.7334197,24.7018947 L13.4494251,25.2684804 C13.3993306,25.0542834 13.3716923,24.8314494 13.3716923,24.6025695 C13.3716923,22.9861592 14.6819217,21.6759298 16.2979001,21.6759298 C17.9143104,21.6759298 19.224108,22.9861592 19.224108,24.6025695 C19.224108,26.0186019 18.2179001,27.1988448 16.8813279,27.4691822 L17.3511795,27.7092901 L19.4180081,28.7163617 L19.7997625,28.9448097 L20.1832443,29.1862132 C20.3106397,29.272583 20.4388988,29.3498839 20.5654305,29.4444588 L20.7557139,29.5809231 L20.9359568,29.7160918 C20.972664,29.7437301 21.0128259,29.7765506 21.052556,29.809803 L21.1700189,29.7160918 C21.2835951,29.6266991 21.4127179,29.5355789 21.5401134,29.4444588 C21.6666451,29.3498839 21.795336,29.272583 21.9227314,29.1862132 L22.3066451,28.9448097 L22.6875358,28.7163617 L24.7543644,27.7092901 L25.1961457,27.4842969 C23.8198435,27.2459163 22.77261,26.0466721 22.77261,24.6025695 C22.77261,22.9861592 24.0828394,21.6759298 25.698386,21.6759298 C27.3143644,21.6759298 28.6241619,22.9861592 28.6241619,24.6025695 L28.6215709,24.7256464 C28.6152371,24.8736266 28.5979631,25.0187278 28.5706447,25.1601823 L28.5222456,25.3695331 L28.6945533,25.2391147 L29.3721242,24.7018947 L29.8044049,24.3538246 L30.2202753,24.0031633 C30.763973,23.5264022 31.2804642,23.0176842 31.7408151,22.4631903 C31.9735816,22.1885344 32.1946883,21.9052416 32.3998165,21.6102888 C32.6062402,21.3174953 32.798413,21.0152011 32.9707206,20.7021107 C33.0853045,20.4939595 33.1943224,20.2823536 33.2963667,20.0672928 L33.444027,19.7421107 C33.5671039,19.4860243 33.6742024,19.2208691 33.7653225,18.9500999 C33.9104238,18.5057274 34.0144993,18.0466721 34.0779811,17.5815709 C34.1255924,17.2327449 34.1506127,16.8797895 34.1530418,16.5263482 L34.1479406,16.1728799 C34.1457814,15.6589798 34.0892092,15.1429204 33.981247,14.6389528 C33.9264022,14.3876167 33.8594656,14.1380081 33.7817328,13.8935816 C33.6577922,13.3848637 33.4625965,12.9020567 33.2078057,12.4520702 C33.072637,12.2050526 32.9219217,11.969695 32.758251,11.7477247 C30.4047217,8.64855202 25.8455336,8.25138373 23.0225397,10.6544629 L22.8369555,10.8188178 C22.5752551,11.0403563 22.3265101,11.2800324 22.0941754,11.5374143 C21.8614089,11.7947962 21.6459163,12.0690202 21.4459703,12.3605182 C21.6394386,11.644081 21.9650526,11.0058084 22.3912874,10.4547692 C22.6037571,10.1788178 22.8404103,9.92532254 23.098224,9.6951471 C25.7713684,7.3225695 29.9900999,7.6054305 32.758251,9.6951471 Z M29.8195628,12.2004723 C30.3083794,12.2004723 30.7624072,12.3180906 31.1767094,12.5525924 C31.2581895,12.5988146 31.3360975,12.6494049 31.4105086,12.7044883 L31.5195122,12.7904988 L31.588,12.854 L31.588888,12.7877868 L32.3307233,12.7877868 L32.3307233,18.1668556 C32.3307233,19.8120331 30.7227662,21.1280027 28.7675789,21.1280027 C26.9578736,21.1280027 25.434231,19.9974514 25.2273164,18.5023297 L25.2097969,18.3347437 L25.2040027,18.1668556 L25.204,16.837 L25.0101602,16.7937965 L24.999103,16.7871529 L24.6607827,16.788224 C24.541613,16.788224 24.4463096,16.8113798 24.3774386,16.8524258 C24.2939681,16.9032063 24.225717,16.9680175 24.1731465,17.0462547 C24.1142426,17.1340997 24.0700644,17.2334791 24.0415724,17.3432768 L24.016167,17.4589857 L24.0014818,17.5660738 L23.995695,17.6916923 L23.995695,19.305471 L23.432,19.305 L23.4371438,19.3345344 L22.7093103,19.3345344 L22.648,19.072 L22.5654612,19.1228295 C22.4159503,19.2033587 22.2584488,19.2602018 22.0950768,19.2927917 L21.9298265,19.3172761 L21.7611336,19.3254656 C21.6194781,19.3254656 21.477136,19.3074508 21.3373364,19.2721223 C21.1926956,19.235702 21.0583988,19.1794353 20.9382182,19.1043206 C20.8077861,19.0221541 20.7001902,18.9149938 20.619927,18.7859994 C20.5961355,18.7477401 20.5755787,18.7013769 20.5582798,18.650062 L20.5595601,19.4117922 L19.8090877,19.4117922 L19.8090877,16.8682429 C19.8090877,16.7336063 19.794467,16.5850281 19.7654914,16.4287878 C19.7390849,16.2889046 19.6905453,16.1625785 19.6207618,16.0514787 C19.5555828,15.9471265 19.4651249,15.85759 19.3506282,15.7850972 C19.2490809,15.7211375 19.107981,15.6862321 18.9289393,15.6862321 C18.7665933,15.6862321 18.6131966,15.7197822 18.4722058,15.7857407 C18.3303237,15.8521387 18.2053179,15.949091 18.1008428,16.0739657 C17.9910765,16.2062009 17.9011837,16.3704426 17.8351295,16.5629737 C17.7844823,16.7095091 17.7521766,16.8750831 17.7391892,17.0574144 L17.7326775,17.245247 L17.7326775,19.4117922 L16.9822051,19.4117922 L16.9845201,18.7640862 C16.8363889,19.1252737 16.5700674,19.440883 16.2035174,19.6779802 C15.8402478,19.9130936 15.4133604,20.0479067 14.9690005,20.068474 L14.849004,20.0713549 C14.421559,20.0713549 14.0085029,19.9628245 13.6535524,19.7586984 C13.4696555,19.6607166 13.302776,19.5414472 13.1653513,19.4110911 C13.0632136,19.3223404 12.9704098,19.2210539 12.8919003,19.1135285 C12.8114529,19.0050995 12.7427091,18.8856163 12.6871662,18.7585168 C12.5992782,18.5584821 12.5461837,18.3400962 12.5284614,18.1087425 L12.5218111,17.9328799 L12.5218111,17.6828799 L13.2571687,17.6828799 L13.2571687,17.9328799 C13.2571687,18.1301213 13.2922543,18.3079188 13.360725,18.4635055 C13.3944386,18.5408693 13.4355904,18.6124876 13.4836844,18.6774346 L13.5620389,18.7726085 L13.6618034,18.8688916 C13.7344136,18.9379263 13.81687,19.0010034 13.9256724,19.0690472 L14.043868,19.1391512 L14.0112607,19.1167715 C14.5486869,19.4265511 15.2729206,19.40471 15.8040032,19.0613117 C16.1768514,18.8199606 16.3798336,18.4709973 16.3834106,18.0763127 L16.3756302,17.9130148 C16.3756302,17.7849851 16.3209877,17.6074917 16.2399677,17.4978526 C16.0684036,17.2833975 15.8529301,17.1421434 15.4216837,16.9456052 L14.9029637,16.7170509 C14.6719979,16.6069813 14.4808044,16.5080703 14.298279,16.399018 C13.8204977,16.1117888 13.4933085,15.7952024 13.2821099,15.4123022 C13.2411595,15.343564 13.2037623,15.2725831 13.171993,15.2032637 C12.9926878,14.8160041 12.943847,14.4013713 13.0319447,14.0122984 C13.0546887,13.9036325 13.0893529,13.7942874 13.1340042,13.689435 C13.1773521,13.5867951 13.2316948,13.4865574 13.2958112,13.3903853 C13.8022225,12.6361958 14.9484407,12.349681 15.8463345,12.7138659 L16.0020278,12.7849257 L16.1095935,12.8462069 C16.1792495,12.8888479 16.2448323,12.9350068 16.3065563,12.9843474 C16.7746446,13.3463357 17.0356503,13.8969853 16.9666219,14.6412152 L16.9424179,14.8313084 L16.9026867,15.0783487 L16.176637,14.9609391 L16.2164474,14.7142164 C16.2945226,14.230349 16.1966734,13.8284623 15.8510567,13.5614713 C15.792788,13.5144352 15.7296478,13.4727895 15.6664054,13.4388931 C15.3881539,13.2968537 15.0268892,13.2543579 14.6825311,13.3262852 C14.3416612,13.3969489 14.0586074,13.5725977 13.90677,13.7989757 C13.8684011,13.8567083 13.8364056,13.9158782 13.8104502,13.9775945 C13.7851707,14.0365801 13.7652045,14.1002444 13.750548,14.1692466 C13.6963303,14.4067553 13.7250814,14.6476665 13.8392307,14.8951104 L13.8913172,14.9972762 L13.9208813,15.0482298 C14.0700613,15.3184779 14.3074333,15.5469324 14.6773398,15.7688765 C14.7553928,15.8158464 14.8354319,15.8604947 14.9228869,15.9062518 L15.2129301,16.0502795 L15.4634324,16.1608536 C16.1315449,16.4497841 16.4535772,16.6287984 16.7387081,16.9502929 L16.8234496,17.051268 L16.9049419,17.1754329 C16.9335919,17.2246916 16.9597087,17.2763058 16.9829892,17.3292636 L16.9822051,12.5230202 L17.7326775,12.5230202 L17.732,15.419 L17.8670551,15.3102752 C17.935219,15.2599319 18.0065741,15.2147319 18.0806772,15.174895 L18.1938375,15.1191896 L18.3705795,15.051076 C18.5501002,14.9930848 18.7384526,14.9633981 18.9289393,14.9633981 C19.2317648,14.9633981 19.4960794,15.0203392 19.7136623,15.136809 C19.92659,15.2518211 20.1000922,15.4067478 20.2282199,15.5978893 C20.3494159,15.7784261 20.4368021,15.9846879 20.4878624,16.2089587 C20.5183984,16.3451492 20.5393212,16.4831834 20.5503601,16.6214825 L20.7975014,16.4361922 C20.9586431,16.3142064 21.1440559,16.2204243 21.3475399,16.1569626 C21.5462691,16.0956264 21.7446128,16.064224 21.9377598,16.064224 C22.3304515,16.064224 22.6584545,16.1573639 22.9061327,16.3476798 C23.0902878,16.4896082 23.2119699,16.6854022 23.2705896,16.9303843 L23.246475,16.4087057 L23.2078826,16.0779136 L23.9375626,16.0779136 L23.958,16.285 L24.0449103,16.2339568 C24.1061818,16.2019268 24.1695186,16.1750434 24.2352879,16.1533581 L24.3358121,16.1247349 L24.4940422,16.096504 L24.6318489,16.0887099 L25.0216076,16.0886454 L25.0698852,16.0938648 L25.204,16.117 L25.2040027,15.9009852 L25.9467018,15.9009852 L25.9467018,18.1668556 C25.9467018,18.4437611 26.0109644,18.7101916 26.1285437,18.9567114 L26.1280323,16.9582615 L26.1175729,16.6408957 L26.0942977,16.3673695 L26.0637013,16.0899622 L26.8176928,16.0899622 L26.836,16.27 L26.9752273,16.1865037 L27.1097704,16.1234108 L27.2503303,16.0740998 C27.3458581,16.0461657 27.443686,16.0274033 27.5430588,16.0179989 L27.6092632,16.0145089 C27.5395191,15.9043214 27.4783518,15.7873757 27.4257785,15.6637198 C27.297621,15.360978 27.2332605,15.0340022 27.2332605,14.6861538 C27.2332605,14.338326 27.2974502,14.0104185 27.425598,13.7038332 C27.5538245,13.3993554 27.7334693,13.1342918 27.964245,12.9097926 C28.1959223,12.6849008 28.471795,12.5100248 28.7886412,12.3869928 C29.106307,12.2625022 29.450377,12.2004723 29.8195628,12.2004723 Z M31.588,16.508 L31.4849284,16.5967506 L31.3432815,16.7007447 L31.1945326,16.7948365 C30.9927493,16.9126627 30.7733975,17.0019574 30.5360327,17.063459 C30.3023888,17.1230524 30.0635448,17.152834 29.8195628,17.152834 C29.597621,17.152834 29.3850712,17.1307332 29.1820515,17.0863145 L28.9789949,17.03349 L28.9986127,17.1497567 L29.0118033,17.2721549 L29.0176221,17.4208799 L29.0176221,19.2950634 L28.2680135,19.2950634 L28.2680135,17.432108 C28.2680135,17.3482425 28.2577601,17.2542989 28.2373166,17.153937 C28.2206507,17.0730764 28.1900017,17.0000844 28.147209,16.9372059 C28.1058829,16.8776393 28.0479533,16.8255174 27.972636,16.7822165 C27.9101494,16.7460672 27.8164592,16.7251309 27.6931822,16.7251309 C27.5802134,16.7251309 27.4741122,16.7462353 27.377053,16.7875994 C27.2818651,16.8281661 27.1982449,16.8874575 27.1281639,16.9636435 C27.0545951,17.0442668 26.9935946,17.145648 26.9484161,17.2649744 C26.9260305,17.3240996 26.9088809,17.3894263 26.8974627,17.4574099 L26.884696,17.5609351 L26.8795385,17.692081 L26.8795385,19.2950634 L26.3325959,19.2956687 C26.8210849,19.9584522 27.7256092,20.409919 28.7675789,20.409919 C30.2065846,20.409919 31.394357,19.5447587 31.5667728,18.4528831 L31.5834408,18.3092313 L31.588888,18.1668556 L31.588,16.508 Z M11.3787989,14.9980324 L11.3787989,19.284915 L10.6607152,19.284915 L10.6607152,14.9980324 L11.3787989,14.9980324 Z M22.571,17.774 L22.4231579,17.7742645 C22.2728994,17.7742645 22.1122385,17.7821523 21.9463342,17.7977957 C21.7950489,17.811931 21.6543586,17.8410658 21.531037,17.8830338 C21.4261218,17.919526 21.3427299,17.9696082 21.2823766,18.0296642 C21.2462646,18.0659586 21.2281916,18.1152653 21.2281916,18.1996761 L21.2307075,18.2580519 L21.2445133,18.3728714 L21.2559709,18.4303749 C21.282596,18.4701926 21.3159869,18.5013148 21.3585322,18.5253909 C21.413913,18.5572581 21.4762365,18.58109 21.5449119,18.5960352 C21.6237079,18.6135058 21.6958969,18.6220648 21.7611336,18.6220648 C21.9315079,18.6220648 22.0679285,18.5958267 22.1663865,18.5480142 C22.2709762,18.4975455 22.3507144,18.4364812 22.407458,18.3651829 C22.4670398,18.2914151 22.5080533,18.2107862 22.5305395,18.123922 C22.5426686,18.0771845 22.552097,18.0309728 22.5585981,17.9887504 L22.5661258,17.9288416 L22.5713225,17.820081 L22.571,17.774 Z M20.5508327,16.6274811 L20.5573729,16.7394812 L20.5595601,16.8514008 L20.5585408,17.8295989 C20.5996133,17.7289662 20.6590835,17.6379556 20.7369221,17.5583833 C20.8756879,17.4180163 21.0470865,17.3092696 21.2452548,17.2349565 C21.4287997,17.1660058 21.627005,17.1208928 21.8354409,17.1001458 L22.022897,17.0842493 L22.2033391,17.0744795 L22.545,17.071 L22.5211897,17.0072679 L22.5032031,16.9761188 L22.482503,16.9482565 L22.4330195,16.9015416 C22.3166202,16.814704 22.1522006,16.7680567 21.9377598,16.7680567 C21.7990114,16.7680567 21.6722258,16.7892904 21.5588488,16.8307349 C21.5048888,16.8506661 21.4535074,16.8733993 21.4082293,16.8966518 L21.3453302,16.9316346 L21.2377202,17.0052167 L21.0078057,17.1828778 L20.5508327,16.6274811 Z M29.816108,12.8745074 C29.5241062,12.8745074 29.2647703,12.9243871 29.0360309,13.0228508 C28.8045279,13.1228877 28.6104263,13.2546501 28.45059,13.4193752 C28.2909997,13.58426 28.1683024,13.7753738 28.0822492,13.9935241 C27.9959308,14.2139033 27.9526397,14.445139 27.9526397,14.6874494 C27.9526397,14.9293759 27.9959478,15.160607 28.0819745,15.3802446 C28.1682744,15.598644 28.2910519,15.7898826 28.450173,15.954662 C28.6103906,16.1194034 28.8040303,16.2497215 29.0334511,16.3462 C29.2628793,16.4423016 29.5229796,16.4908907 29.816108,16.4908907 C30.0949754,16.4908907 30.3488652,16.4423529 30.5777116,16.3463362 C30.8087987,16.2491572 31.0069527,16.1177828 31.1738924,15.9519823 C31.2573511,15.8687141 31.3318043,15.7789461 31.3957655,15.6855888 L31.4836523,15.5432247 L31.5650791,15.3787736 L31.588888,15.3680432 L31.6069685,14.0811995 L31.5677501,13.9835038 C31.4720857,13.7635899 31.3414412,13.5727864 31.1757337,13.4104837 C31.00869,13.2472365 30.810222,13.1172713 30.5775751,13.0194363 C30.348896,12.9231104 30.0951653,12.8745074 29.816108,12.8745074 Z" id="path-2"></path>
    </defs>
    <g id="Header-/logo" stroke="none" stroke-width="1" fill="none" fill-rule="evenodd">
        <rect id="Rectangle" fill="#FFFFFF" x="5" y="5" width="32" height="32" rx="7.38461538"></rect>
        <mask id="mask-3" fill="white">
            <use xlink:href="#path-2"></use>
        </mask>
        <use id="Combined-Shape" fill="url(#linearGradient-1)" xlink:href="#path-2"></use>
        <path d="M109.236228,30.8848048 C109.598511,30.8848048 109.895928,30.9463063 110.130402,31.0688288 C110.365838,31.1908709 110.584937,31.3936336 110.789141,31.6766366 L110.789141,30.99003 L112.455928,30.99003 L112.455928,35.3777778 L112.460733,35.5834234 C112.460733,35.8750751 112.398751,36.1527928 112.274787,36.4165766 C112.150823,36.6803604 111.986018,36.8946547 111.780372,37.0575375 C111.574727,37.2209009 111.313826,37.3390991 110.996709,37.4116517 C110.680553,37.4846847 110.31827,37.5212012 109.909862,37.5212012 C108.977249,37.5212012 108.336288,37.3813814 107.986979,37.1012613 C107.639111,36.8211411 107.464216,36.4468468 107.464216,35.9764565 C107.464216,35.9183183 107.467099,35.8395195 107.473826,35.741021 L109.201634,35.9375375 C109.245357,36.0975375 109.312144,36.209009 109.402474,36.2705105 C109.533646,36.3603604 109.698931,36.4055255 109.896889,36.4055255 C110.153946,36.4055255 110.345658,36.3368168 110.472024,36.1998799 C110.598871,36.0629429 110.662775,35.8236637 110.662775,35.4825225 L110.662775,34.7781381 C110.486919,34.9857057 110.312505,35.1356156 110.137129,35.2288288 C109.863255,35.3748949 109.567279,35.4474474 109.249201,35.4474474 C108.62794,35.4474474 108.126799,35.175976 107.744817,34.633994 C107.473826,34.2491291 107.33785,33.7403003 107.33785,33.107027 C107.33785,32.3843844 107.513225,31.8323123 107.862535,31.4532132 C108.212324,31.0741141 108.670222,30.8848048 109.236228,30.8848048 Z M78.9378498,29.112985 C79.7570691,29.112985 80.3821742,29.2657778 80.8117237,29.5704024 C81.2427147,29.875027 81.4983303,30.3603123 81.580012,31.0248168 L79.7119039,31.1343664 C79.6624144,30.8451171 79.5581502,30.6356276 79.3991111,30.5044565 C79.2400721,30.3732853 79.0204925,30.3074595 78.7408529,30.3074595 C78.5102222,30.3074595 78.3367688,30.3564685 78.220012,30.454006 C78.1032553,30.5515435 78.0451171,30.6707027 78.0451171,30.8105225 C78.0451171,30.9128649 78.0931652,31.0046366 78.1897417,31.0863183 C78.282955,31.1708829 78.503976,31.2496817 78.8542462,31.3222342 C79.7205526,31.5086607 80.3413333,31.69797 80.7161081,31.8887207 C81.0904024,32.0804324 81.3637958,32.3168288 81.5338859,32.5998318 C81.7044565,32.8828348 81.7895015,33.198991 81.7895015,33.5487808 C81.7895015,33.9600721 81.6761081,34.3396517 81.4483604,34.6860781 C81.2210931,35.0334655 80.9034955,35.2967688 80.4946066,35.475988 C80.0861982,35.6556877 79.5720841,35.7450571 78.9508228,35.7450571 C77.8601321,35.7450571 77.1043363,35.5350871 76.6843964,35.1151471 C76.2644565,34.6952072 76.0266186,34.1618739 75.9713634,33.5141862 L77.8572492,33.395988 C77.8980901,33.7020541 77.9812132,33.9355676 78.1061381,34.096048 C78.3103423,34.3555075 78.6024745,34.4852372 78.9815736,34.4852372 C79.2645766,34.4852372 79.4822342,34.4189309 79.635027,34.2863183 C79.7883003,34.1532252 79.8651772,33.9994715 79.8651772,33.8245766 C79.8651772,33.6588108 79.7916637,33.5093814 79.6460781,33.3782102 C79.5004925,33.247039 79.1622342,33.1235556 78.6313033,33.0063183 C77.7621141,32.8112432 77.1427748,32.5513033 76.7718438,32.2274595 C76.398991,31.9040961 76.2120841,31.4918438 76.2120841,30.9897417 C76.2120841,30.6606126 76.3072192,30.3487808 76.4989309,30.0561682 C76.6896817,29.7625946 76.977009,29.5324444 77.3604324,29.3642763 C77.7438559,29.1975495 78.2695015,29.112985 78.9378498,29.112985 Z M90.9675435,30.8846126 C91.5018378,30.8846126 91.9304264,30.9148829 92.2542703,30.9749429 C92.5781141,31.0345225 92.8471832,31.158967 93.0633994,31.3482763 C93.2152312,31.4794474 93.3343904,31.6653934 93.4227988,31.9065946 C93.5097658,32.1468348 93.553009,32.376985 93.553009,32.5956036 L93.553009,34.6467748 C93.553009,34.8653934 93.5669429,35.0374054 93.5952913,35.1613694 C93.6226787,35.2848529 93.6836997,35.4434114 93.7764324,35.6360841 L92.1048408,35.6360841 C92.0385345,35.515964 91.9943303,35.4246727 91.9746306,35.3626907 C91.95397,35.2997477 91.9333093,35.2017297 91.9126486,35.0671952 C91.6800961,35.2915796 91.448024,35.4520601 91.2173934,35.5481562 C90.9026787,35.6764444 90.5360721,35.7413093 90.1194955,35.7413093 C89.5655015,35.7413093 89.1441201,35.6125405 88.8572733,35.355964 C88.5699459,35.0993874 88.4262823,34.7827508 88.4262823,34.4065345 C88.4262823,34.0538619 88.5295856,33.7631712 88.7371532,33.5359039 C88.9442402,33.3086366 89.3262222,33.1395075 89.8826186,33.0285165 C90.550967,32.8944625 90.9833994,32.8002883 91.1823183,32.7464745 C91.3807568,32.6921802 91.5907267,32.6215495 91.8122282,32.5345826 C91.8122282,32.3154835 91.7670631,32.1622102 91.6772132,32.0747628 C91.5859219,31.9873153 91.4273634,31.9431111 91.2005766,31.9431111 C90.9084444,31.9431111 90.6898258,31.9901982 90.5432793,32.0834114 C90.4298859,32.1564444 90.3381141,32.2933814 90.2684444,32.4951832 L88.5661021,32.3154835 C88.630967,32.0180661 88.7227387,31.7835916 88.8438198,31.6135015 C88.9649009,31.4424505 89.1397958,31.2949429 89.3665826,31.1690571 C89.5299459,31.0787267 89.7552913,31.0085766 90.0402162,30.9590871 C90.3265826,30.9100781 90.6355315,30.8846126 90.9675435,30.8846126 Z M118.663736,29.2227267 L118.663736,30.9899339 L119.643435,30.9899339 L119.643435,32.2934775 L118.663736,32.2934775 L118.663736,33.9391231 C118.663736,34.1375616 118.682474,34.2687327 118.720913,34.3326366 C118.779051,34.4311351 118.880432,34.4806246 119.026979,34.4806246 C119.15815,34.4806246 119.342174,34.4431471 119.57761,34.3672312 L119.709261,35.5967808 C119.269141,35.6923964 118.85785,35.7409249 118.475868,35.7409249 C118.032384,35.7409249 117.705658,35.6837477 117.495207,35.5703544 C117.286198,35.456961 117.130523,35.283988 117.030102,35.0523964 C116.929682,34.8208048 116.878751,34.44603 116.878751,33.9275916 L116.878751,32.2934775 L116.222895,32.2934775 L116.222895,30.9899339 L116.878751,30.9899339 L116.878751,30.1366006 L118.663736,29.2227267 Z M100.442763,30.99003 L100.442763,35.6362763 L98.6625826,35.6362763 L98.6625826,30.99003 L100.442763,30.99003 Z M75.0613814,30.99003 L75.0613814,35.6362763 L73.2807207,35.6362763 L73.2807207,30.99003 L75.0613814,30.99003 Z M84.4496817,29.2227267 L84.4496817,31.5847688 C84.6913634,31.3344384 84.9325646,31.1547387 85.1713634,31.0471111 C85.4101622,30.939003 85.6936456,30.8847087 86.0203724,30.8847087 C86.5042162,30.8847087 86.8852372,31.0322162 87.1639159,31.3267508 C87.4430751,31.6212853 87.5819339,32.0738979 87.5819339,32.6826667 L87.5819339,35.6361802 L85.7921441,35.6361802 L85.7921441,33.0805045 C85.7921441,32.7898138 85.7388108,32.5832072 85.6307027,32.4621261 C85.5225946,32.341045 85.3712432,32.280024 85.1756877,32.280024 C84.959952,32.280024 84.7850571,32.3617057 84.651003,32.5250691 C84.5169489,32.6889129 84.4496817,32.982006 84.4496817,33.4043483 L84.4496817,35.6361802 L82.669021,35.6361802 L82.669021,29.2227267 L84.4496817,29.2227267 Z M46.8258018,30.9897898 L47.5705465,33.914955 L48.5132492,30.9897898 L50.1218979,30.9897898 L51.1044805,33.9226426 L51.85403,30.9897898 L55.2821141,30.9897898 L56.0268589,33.914955 L56.9695616,30.9897898 L58.5782102,30.9897898 L59.5607928,33.9226426 L60.3103423,30.9897898 L63.7378979,30.9897898 L64.4831231,33.914955 L65.4253453,30.9897898 L67.0344745,30.9897898 L68.0170571,33.9226426 L68.7661261,30.9897898 L70.4766366,30.9897898 L68.7656456,35.636036 L67.181021,35.636036 L66.2402402,32.8406006 L65.3302102,35.636036 L63.7393393,35.636036 L62.0184324,30.9942523 L60.3098619,35.636036 L58.7252372,35.636036 L57.7844565,32.8406006 L56.8744264,35.636036 L55.2835556,35.636036 L53.5624324,30.9942523 L51.8535495,35.636036 L50.2689249,35.636036 L49.3281441,32.8406006 L48.4181141,35.636036 L46.8272432,35.636036 L45.1042402,30.9897898 L46.8258018,30.9897898 Z M104.918342,30.8845646 C105.411315,30.8845646 105.796661,31.0315916 106.075339,31.3246847 C106.354498,31.6177778 106.493357,32.0703904 106.493357,32.6825225 L106.493357,35.636036 L104.704529,35.636036 L104.704529,33.0808408 C104.704529,32.7896697 104.650234,32.5830631 104.542126,32.461982 C104.434018,32.3413814 104.282186,32.2803604 104.087111,32.2803604 C103.871375,32.2803604 103.69648,32.3615616 103.562426,32.5249249 C103.428372,32.6887688 103.360625,32.9818619 103.360625,33.4042042 L103.360625,35.636036 L101.580444,35.636036 L101.580444,30.9897898 L103.238583,30.9897898 L103.238583,31.7465465 C103.486511,31.4375976 103.736841,31.2170571 103.991495,31.0834835 C104.244709,30.9513514 104.553177,30.8845646 104.918342,30.8845646 Z M97.4332733,30.8845646 C97.6960961,30.8845646 97.9834234,30.9662462 98.2947748,31.1296096 L97.7441441,32.3985586 C97.5336937,32.3111111 97.3679279,32.2669069 97.2458859,32.2669069 C97.0118919,32.2669069 96.8307508,32.3634835 96.7034234,32.5561562 C96.5193994,32.8271471 96.4276276,33.335015 96.4276276,34.0783183 L96.4276276,35.636036 L94.6378378,35.636036 L94.6378378,30.9897898 L96.3046246,30.9897898 L96.3046246,31.7508709 C96.4651051,31.4212613 96.6308709,31.194955 96.800961,31.0705105 C96.9715315,30.9465465 97.1829429,30.8845646 97.4332733,30.8845646 Z M121.693021,30.9897898 L122.438246,33.914955 L123.380468,30.9897898 L124.989598,30.9897898 L125.97218,33.9226426 L126.721249,30.9897898 L128.43176,30.9897898 L126.721249,35.636036 L125.136144,35.636036 L124.195432,32.8412523 L123.286294,35.636036 L121.694943,35.636036 L119.97194,30.9897898 L121.693021,30.9897898 Z M91.8122282,33.4306787 C91.5671832,33.5186066 91.312048,33.595964 91.0463423,33.6622703 C90.685021,33.7593273 90.4563123,33.853982 90.3597357,33.9467147 C90.2607568,34.0432913 90.2112673,34.1528408 90.2112673,34.2753634 C90.2112673,34.4151832 90.2602763,34.5295375 90.3578138,34.6189069 C90.4553514,34.7077958 90.599015,34.752 90.7883243,34.752 C90.9872432,34.752 91.1712673,34.703952 91.3418378,34.6073754 C91.5128889,34.5117598 91.63397,34.3945225 91.7050811,34.2556637 C91.7766727,34.1172853 91.8122282,33.9371051 91.8122282,33.7151231 L91.8122282,33.4306787 Z M109.862294,32.1753754 C109.634066,32.1753754 109.452925,32.2575375 109.316949,32.4228228 C109.181934,32.5876276 109.114186,32.861021 109.114186,33.243003 C109.114186,33.5778979 109.185297,33.8267868 109.328,33.9891892 C109.470703,34.1506306 109.659532,34.2313514 109.892084,34.2313514 C110.114547,34.2313514 110.300492,34.1477477 110.450402,33.9795796 C110.600793,33.8128529 110.675748,33.5591592 110.675748,33.2209009 C110.675748,32.8826426 110.596949,32.6236637 110.439351,32.4444444 C110.281754,32.2652252 110.089081,32.1753754 109.862294,32.1753754 Z M100.442763,29.2228228 L100.442763,30.4341141 L98.6625826,30.4341141 L98.6625826,29.2228228 L100.442763,29.2228228 Z M75.0613814,29.2228228 L75.0613814,30.4341141 L73.2807207,30.4341141 L73.2807207,29.2228228 L75.0613814,29.2228228 Z M48.6713754,12.4313273 L50.1594234,13.5835195 C50.1027267,13.7094054 50.0609249,13.8141502 50.0335375,13.8982342 C49.6981622,14.7501261 49.3839279,15.3997357 49.0903544,15.8461021 L49.0903544,26.2806967 L47.2674114,26.2806967 L47.2674114,18.6122282 L46.6389429,19.5131291 C46.4851892,19.7230991 46.268973,19.9883243 45.9893333,20.3092853 C45.9475315,20.3515676 45.898042,20.4068228 45.8427868,20.4774535 L45.0884324,18.1303063 C46.3593033,16.73403 47.4769009,14.9946907 48.4407447,12.9132492 C48.496961,12.7739099 48.5738378,12.6129489 48.6713754,12.4313273 Z M77.0836276,18.0469429 L77.0836276,19.1145706 L85.5905345,19.1145706 L85.5905345,20.7703063 L79.031976,20.7703063 C80.6805045,22.0834595 82.9224264,23.0333694 85.7582222,23.620036 L84.9197838,25.4636396 C82.9363604,24.8909069 81.3747988,24.2451411 80.2365405,23.5253814 C79.0982823,22.8065826 78.046991,21.909045 77.0836276,20.8332492 L77.0836276,26.2809369 L75.2606847,26.2809369 L75.2606847,20.8543904 C74.3943784,21.8461021 73.3920961,22.7052012 72.2538378,23.4316877 C71.1150991,24.1576937 69.4982823,24.8356517 67.4033874,25.4636396 L66.4808649,23.7459219 C69.2604444,23.103039 71.5167808,22.1113273 73.2489129,20.7703063 L66.6283724,20.7703063 L66.6283724,19.1145706 L75.2606847,19.1145706 L75.2606847,18.0469429 L77.0836276,18.0469429 Z M53.0086727,17.941958 L53.0086727,19.9321081 C53.0086727,21.4412973 52.8760601,22.6247207 52.6103544,23.4838198 C52.3451291,24.3429189 51.8910751,25.2539099 51.2486727,26.2177538 L49.6145586,24.7513273 C50.3400841,23.9412372 50.7874114,23.0542703 50.9555796,22.0904264 C51.1227868,21.1270631 51.2068709,19.8768529 51.2068709,18.3397958 L51.2068709,17.941958 L53.0086727,17.941958 Z M59.7132973,7.02496096 L61.4944384,7.21330931 L61.1802042,8.84838438 C60.9985826,9.72814414 60.8726967,10.2802162 60.8035075,10.5036396 L64.3864505,10.5036396 L64.3864505,12.3683844 L63.5268709,12.3683844 C63.3313153,16.0839399 62.7936577,19.0941502 61.9134174,21.399015 C62.0527568,21.5811171 62.1651892,21.7339099 62.2487928,21.8597958 C62.7374414,22.5026787 63.3663904,23.2085045 64.1346787,23.9758318 C64.2043483,24.0315676 64.287952,24.1156517 64.3864505,24.2276036 L63.338042,26.0923483 C62.5000841,25.1707868 61.7178619,24.2131892 60.9913754,23.221958 C60.1116156,24.3390751 59.2525165,25.2471832 58.4145586,25.9458018 C58.3448889,26.0015375 58.2535976,26.0784144 58.1421261,26.1764324 L56.8851892,24.5211772 C58.3237477,23.5015976 59.3711952,22.4680841 60.028012,21.4196757 C59.4413453,20.0512673 58.9666306,18.5910871 58.6033874,17.0410571 C58.5611051,16.8455015 58.5053694,16.6009369 58.4356997,16.3073634 L58.0791832,16.9781141 L57.6184024,17.6901862 L56.9894535,16.6009369 L49.8865105,16.6009369 L49.8865105,14.8615976 L57.1782823,14.8615976 C57.3694629,14.532342 57.5553623,14.1677572 57.7359893,13.767852 L57.7984324,13.6252523 L57.8067508,13.6253213 L57.8064324,13.6062523 L57.8704712,13.4613007 C58.4934412,11.9998239 59.0518527,10.1057006 59.5460901,7.77931532 C59.5883724,7.58424024 59.6436276,7.33294895 59.7132973,7.02496096 Z M95.1868348,17.9419099 L95.1868348,23.515003 C95.1868348,23.9479159 95.4309189,24.1646126 95.9195676,24.1646126 L99.7542823,24.1646126 C100.20209,24.1646126 100.490859,24.081009 100.623952,23.9128408 C100.756565,23.7461141 100.865153,23.0748829 100.948757,21.90203 C100.948757,21.7482763 100.955483,21.5387868 100.969417,21.2730811 L102.939387,21.8808889 C102.813502,23.3199279 102.681369,24.2799279 102.54155,24.7618498 C102.40173,25.2437718 102.115363,25.5724204 101.68197,25.7468348 C101.249057,25.9212492 100.634523,26.0086967 99.8388468,26.0086967 L95.2920601,26.0086967 C94.5506787,26.0086967 94.0101381,25.8338018 93.6675556,25.484973 C93.324973,25.1356637 93.1544024,24.4303183 93.1544024,23.3689369 L93.1544024,17.9419099 L95.1868348,17.9419099 Z M90.431039,18.5703784 L92.3366246,19.0518198 C92.1968048,19.4996276 92.0862943,19.8691171 92.0017297,20.1631712 C91.3449129,22.3421502 90.6193874,24.0387267 89.8227508,25.2538619 L87.9786667,24.3323003 C88.9141622,22.7822703 89.6339219,21.1827508 90.136985,19.5342222 C90.2066547,19.2829309 90.3051532,18.96197 90.431039,18.5703784 Z M127.538498,8.7643003 L127.538498,10.7554114 L119.973814,10.7554114 L119.973814,23.159015 L128.313514,23.159015 L128.313514,25.1501261 L109.455616,25.1501261 L109.455616,23.159015 L117.816456,23.159015 L117.816456,10.7760721 L110.294054,10.7760721 L110.294054,8.7643003 L127.538498,8.7643003 Z M56.5704745,17.941958 L56.5704745,21.1683844 L57.34597,20.4981141 C57.5136577,20.3582943 57.6741381,20.2045405 57.8278919,20.0373333 C57.8836276,19.9671832 57.9744384,19.8629189 58.1003243,19.7230991 L58.5611051,21.4412973 L57.9532973,22.0481441 C56.9615856,23.011988 55.8718559,23.8782943 54.6845886,24.6470631 L53.6794234,22.949045 C53.7625465,22.9077237 53.8254895,22.8798559 53.8677718,22.8659219 C53.9797237,22.8101862 54.1257898,22.7261021 54.3074114,22.6141502 L54.8104745,22.2999159 L54.8104745,17.941958 L56.5704745,17.941958 Z M104.050258,18.025033 C104.664312,18.9475556 105.174583,19.8138619 105.579147,20.623952 L107.108997,23.7038318 L105.077045,24.5417898 C104.056985,22.0279159 103.107075,20.1280961 102.226835,18.8428108 L104.050258,18.025033 Z M97.9524805,16.7056336 C98.2873754,17.041009 98.6583063,17.4811291 99.0633514,18.025033 L100.59224,20.0790871 L98.8533814,21.1058739 C97.9596877,19.638967 97.1284565,18.4935015 96.3596877,17.6694775 L97.9524805,16.7056336 Z M61.8927568,12.3683844 L60.2793033,12.3683844 L60.028012,13.0804565 L59.7555796,13.8141502 C59.7555796,15.4766126 60.1466907,17.3413574 60.9289129,19.4083844 C61.4454294,17.4811772 61.7596637,15.455952 61.8716156,13.3322282 C61.8716156,13.0804565 61.8788228,12.7594955 61.8927568,12.3683844 Z M81.7558198,7.23517117 L83.4317357,7.52778378 C82.8878318,9.00862462 82.2588829,10.3433994 81.5468108,11.5301862 L82.1752793,11.509045 L83.0761802,11.4879039 L83.4946787,10.6706066 L83.9347988,9.7279039 L85.381045,10.5038799 C84.2634474,12.7525285 83.0338979,14.6033393 81.6928769,16.0558318 L82.8037477,15.9717477 C83.1520961,15.9717477 83.425009,15.9443604 83.6205646,15.8886246 C83.5922162,15.5815976 83.5297538,15.3091652 83.4317357,15.0708468 L83.2433874,14.6100661 L84.6684925,14.2751712 C84.6958799,14.3871231 84.7242282,14.4779339 84.7525766,14.5476036 C85.0038679,15.2596757 85.1504144,15.6930691 85.1926967,15.8463423 L85.7366006,17.7951712 L84.102967,18.1305465 L84.0188829,17.6486246 L83.9347988,17.2503063 C83.3486126,17.3757117 82.6639279,17.4386547 81.8817057,17.4386547 L79.6604444,17.5645405 L79.3673514,15.9510871 L79.9958198,15.9717477 L81.3156997,14.3587748 C81.6232072,13.9681441 81.8817057,13.6044204 82.0907147,13.269045 C82.1613453,13.1436396 82.2511952,12.9898859 82.3636276,12.8082643 L80.8126366,12.9548108 L79.5975015,13.0177538 L79.4091532,11.4672432 L79.954018,11.4672432 C80.7088529,10.1122883 81.2527568,8.88994595 81.5886126,7.8006967 C81.6299339,7.64694294 81.6861502,7.45859459 81.7558198,7.23517117 Z M69.6453093,7.29811411 L71.3212252,7.59072673 C71.2236877,7.81463063 71.1468108,8.00297898 71.0910751,8.15673273 C70.5596637,9.45547147 70.0292132,10.5524084 69.4982823,11.4461021 L70.1267508,11.4254414 L70.9651892,11.4047808 L71.3841682,10.587003 L71.8242883,9.6443003 L73.2700541,10.3986547 C72.1803243,12.5776336 70.9094535,14.4294054 69.456961,15.9510871 L70.5668709,15.8886246 C70.9863303,15.8886246 71.265009,15.8463423 71.4048288,15.7627387 L71.2794234,14.9454414 L71.1328769,14.464 L72.5791231,14.2535495 C72.704048,14.6874234 72.816,15.2178739 72.914018,15.8463423 L73.2489129,17.8581141 L71.6988829,18.0469429 L71.6359399,17.5438799 C71.6359399,17.3622583 71.6215255,17.2296456 71.5936577,17.1455616 C71.0492733,17.2714474 70.3991832,17.3339099 69.6453093,17.3339099 L67.4033874,17.4809369 L67.130955,15.8674835 L67.7589429,15.8886246 C68.7232673,14.8546306 69.5544985,13.7927688 70.2526366,12.7035195 C69.6943183,12.8154715 69.1773213,12.8712072 68.7021261,12.8712072 L67.3611051,12.9341502 L67.1727568,11.3836396 L67.5922162,11.3836396 C67.6191231,11.3836396 67.6575616,11.3903664 67.7070511,11.4047808 C67.7555796,11.4187147 67.8045886,11.4254414 67.8540781,11.4254414 C67.9026066,11.4254414 68.1293934,11.005982 68.5349189,10.168024 C68.9394835,9.33006607 69.3099339,8.37342943 69.6453093,7.29811411 Z M75.8050691,7.04634234 L77.5862102,7.23517117 L77.2513153,8.15673273 C77.1667508,8.36574174 77.0764204,8.57571171 76.9788829,8.7852012 L76.9159399,8.91108709 L79.0949189,8.91108709 L79.0949189,17.6068228 L73.480024,17.6068228 L73.480024,8.91108709 L75.092997,8.91108709 C75.1347988,8.81354955 75.1693934,8.73667267 75.1977417,8.68045646 C75.3370811,8.38736336 75.4278919,8.17787387 75.4701742,8.05198799 L75.8050691,7.04634234 Z M98.5391471,7.00425225 L98.5391471,9.49746547 L107.130138,9.49746547 L107.130138,11.3415495 L98.5391471,11.3415495 L98.5391471,14.3166847 L105.726655,14.3166847 L105.726655,16.1607688 L89.4042523,16.1607688 L89.4042523,14.3166847 L96.4226306,14.3166847 L96.4226306,11.3415495 L87.8321201,11.3415495 L87.8321201,9.49746547 L96.4226306,9.49746547 L96.4226306,7.00425225 L98.5391471,7.00425225 Z M77.5026066,13.750967 L75.0718559,13.750967 L75.0718559,16.1187748 L77.5026066,16.1187748 L77.5026066,13.750967 Z M54.8945586,7.0043003 L54.8945586,11.9076036 L56.1096937,11.9076036 L56.1096937,8.17763363 L57.8067508,8.17763363 L57.8064324,13.6062523 L57.7984324,13.6252523 L50.4313754,13.6253213 L50.4313754,8.17763363 L52.1077718,8.17763363 L52.1077718,11.9076036 L53.2811051,11.9076036 L53.2811051,7.0043003 L54.8945586,7.0043003 Z M48.7766006,7.13018619 L50.4525165,7.8633994 C50.3544985,8.05895495 50.2708949,8.22712312 50.2007447,8.36598198 C49.3070511,10.2523483 48.1058498,11.9489249 46.5966607,13.4581141 L45.234979,11.8023784 C46.5620661,10.6155916 47.7421261,9.05739339 48.7766006,7.13018619 Z M77.5026066,10.3986547 L75.0718559,10.3986547 L75.0718559,12.3686246 L77.5026066,12.3686246 L77.5026066,10.3986547 Z" id="Combined-Shape" fill="#FFFFFF"></path>
    </g>
</svg>