<?xml version="1.0" encoding="UTF-8"?>
<svg width="24px" height="24px" viewBox="0 0 24 24" version="1.1" xmlns="http://www.w3.org/2000/svg" xmlns:xlink="http://www.w3.org/1999/xlink">
    <title>Path</title>
    <g id="Symbols" stroke="none" stroke-width="1" fill="none" fill-rule="evenodd" opacity="0.8">
        <g id="topbar_account" fill="#FFFFFF">
            <path d="M12,0 C5.37574689,0 0,5.37574689 0,12 C0,18.6242531 5.37574689,24 12,24 C18.6242531,24 24,18.6242531 24,12 C24,5.37574689 18.6242531,0 12,0 Z M12,1.77777778 C17.6424136,1.77777778 22.2222222,6.35758644 22.2222222,12 C22.2222222,17.6424136 17.6424136,22.2222222 12,22.2222222 C6.35758644,22.2222222 1.77777778,17.6424136 1.77777778,12 C1.77777778,6.35758644 6.35758644,1.77777778 12,1.77777778 Z M12,13 C9.77777778,13 5.36666667,14.2111111 5.33333333,16.4222222 C6.76666667,18.5777778 9.22222222,20 12,20 C14.7777778,20 17.2333333,18.5777778 18.6666667,16.4222222 C18.6333333,14.2111111 14.2111111,13 12,13 Z M12,4.22222222 C10.1555556,4.22222222 8.66666667,5.71111111 8.66666667,7.55555556 C8.66666667,9.4 10.1555556,10.8888889 12,10.8888889 C13.8444444,10.8888889 15.3333333,9.4 15.3333333,7.55555556 C15.3333333,5.71111111 13.8444444,4.22222222 12,4.22222222 Z" id="Path"></path>
        </g>
    </g>
</svg>