<?xml version="1.0" encoding="UTF-8"?>
<svg width="72px" height="72px" viewBox="0 0 72 72" version="1.1" xmlns="http://www.w3.org/2000/svg" xmlns:xlink="http://www.w3.org/1999/xlink">
    <title>account_m</title>
    <g id="account_m" stroke="none" stroke-width="1" fill="none" fill-rule="evenodd">
        <path d="M21.1689192,41.5402299 C25.5432289,45.0966413 30.9704287,47.034695 36.6882527,47.034695 C42.4127195,47.034695 47.8349371,45.0982977 52.1943005,41.5418863 C60.205416,44.6340203 65.9314156,52.3023614 66.1005563,61.3421324 L66.1044061,61.7539645 L66.1044061,63.1520135 C66.1044061,67.3840997 62.7305906,70.83066 58.5194959,70.9616549 L58.2708378,70.9655172 L15.0873997,70.9655172 C10.8444458,70.9655172 7.38903494,67.6003432 7.25770366,63.4000346 L7.25383142,63.1520135 L7.25383142,61.7539645 C7.25383142,52.5341295 13.0347624,44.6775579 21.1689192,41.5402299 Z M36.6867822,0.671775632 C48.4230778,0.671775632 57.9307148,10.1828446 57.9307148,21.9233716 C57.9307148,25.5426012 57.0226077,29.0335703 55.3173086,32.1344809 C54.6571429,33.3398483 53.8783769,34.4802132 52.9902803,35.5447436 C52.5479954,36.0720747 52.0839205,36.5757492 51.6024669,37.0508623 C51.1245248,37.5256964 50.6234906,37.9769636 50.1031179,38.4014128 C49.4955929,38.8985702 48.8336181,39.3661837 48.0527159,39.8626904 L47.5184508,40.1985697 L47.1129425,40.4425392 L46.8658384,40.5821996 C46.8241911,40.6051137 46.7819095,40.6280804 46.7383901,40.6514508 C45.5351365,41.3001749 44.2680523,41.8310152 42.9520093,42.2362687 C40.9382536,42.8560465 38.8317707,43.1749677 36.6867822,43.1749677 C34.5417937,43.1749677 32.4353108,42.8560465 30.4213251,42.2361979 C29.1051512,41.8309041 27.836862,41.3000828 26.636683,40.6539075 L26.3782749,40.5120282 L26.1196586,40.3621687 L25.836818,40.1905307 L25.3146014,39.8620552 C24.5356302,39.3685968 23.8709519,38.9003279 23.2637132,38.4046719 C22.7424108,37.9808116 22.2404234,37.5305572 21.7561522,37.0527609 C21.26434,36.5657561 20.7998425,36.0616229 20.3651995,35.5414468 C19.4811814,34.4817964 18.7024145,33.3420397 18.0404222,32.1363511 C16.4126617,29.1734778 15.5116823,25.858181 15.4331382,22.415957 L15.4275228,21.9233716 L15.4303716,21.5719063 C15.6181533,9.99605151 25.0653448,0.671775632 36.6867822,0.671775632 Z" id="Combined-Shape" fill="#FFFFFF" fill-rule="nonzero"></path>
    </g>
</svg>