<?xml version="1.0" encoding="UTF-8"?>
<svg width="24px" height="24px" viewBox="0 0 24 24" version="1.1" xmlns="http://www.w3.org/2000/svg" xmlns:xlink="http://www.w3.org/1999/xlink">
    <title>ic_event_m</title>
    <g id="ic_event_m" stroke="none" stroke-width="1" fill="none" fill-rule="evenodd">
        <path d="M20.7402168,17.0666667 C21.1118355,17.0666667 21.413114,17.3651556 21.413114,17.7333333 L21.413114,17.7333333 L21.413114,19.3333333 C21.413114,19.7015111 21.1118355,20 20.7402168,20 L20.7402168,20 L3.33460935,20 C2.96299065,20 2.66171215,19.7015111 2.66171215,19.3333333 L2.66171215,19.3333333 L2.66171215,17.7333333 C2.66171215,17.3651556 2.96299065,17.0666667 3.33460935,17.0666667 L3.33460935,17.0666667 Z M12,4 C12.779215,4 13.4130841,4.628 13.4130841,5.4 C13.4130841,5.7744 13.2630729,6.11422222 13.0205607,6.36568889 C13.0213682,6.36675556 13.0223551,6.36764444 13.0231626,6.3688 L16.0470729,10.3784 C16.5189981,11.0041778 17.2713869,11.3777778 18.0599327,11.3777778 C18.7310355,11.3777778 19.3621234,11.1188444 19.8366505,10.6486222 L21.7017421,8.8008 C21.3802766,8.54391111 21.1738318,8.1512 21.1738318,7.71111111 C21.1738318,6.93911111 21.8077009,6.31111111 22.5869159,6.31111111 C23.3661308,6.31111111 24,6.93911111 24,7.71111111 C24,8.32008889 23.604785,8.83804444 23.0557009,9.03022222 C23.0593794,9.09564444 23.0545346,9.16222222 23.0379364,9.22835556 L21.5575626,15.0950222 C21.4829159,15.3905778 21.2155514,15.5984 20.908172,15.6 L12.025929,15.6444444 L3.14018692,15.6444444 C2.83119252,15.6444444 2.56194393,15.4359111 2.4872972,15.1388444 L1.00692336,9.24995556 C0.989876636,9.18204444 0.984942056,9.1136 0.989248598,9.04648889 C0.416568224,8.86773333 0,8.3368 0,7.71111111 C0,6.93911111 0.633869159,6.31111111 1.41308411,6.31111111 C2.19229907,6.31111111 2.82616822,6.93911111 2.82616822,7.71111111 C2.82616822,8.14586667 2.62510654,8.53484444 2.31028037,8.79182222 L4.16370841,10.6419556 C4.63213458,11.1096 5.28215327,11.3776889 5.94715514,11.3776889 C6.73345794,11.3776889 7.48315514,11.0077333 7.95525981,10.3879111 L11.0012411,6.38933333 C10.7453607,6.136 10.5869159,5.78595556 10.5869159,5.4 C10.5869159,4.628 11.220785,4 12,4 Z" id="Combined-Shape" fill="#EC6C01" opacity="0.2"></path>
        <path d="M20.3712231,17.5806136 L20.750269,18.8574367 L3.70360303,19.4860531 L3.32455715,18.20923 L20.3712231,17.5806136 Z M12,4.5 C12.2522846,4.5 12.4811279,4.6015138 12.6468425,4.76569398 C12.8108641,4.92819684 12.9130841,5.15238355 12.9130841,5.4 C12.9130841,5.792002 12.6543093,6.12355177 12.305655,6.24817307 L12.305655,6.24817307 L15.647868,10.6794572 C16.2133888,11.4293437 17.1147653,11.8777778 18.0599327,11.8777778 C18.8640779,11.8777778 19.620066,11.5671485 20.1885556,11.0038162 L20.1885556,11.0038162 L22.6035255,8.61120717 C22.1000608,8.62088259 21.6738318,8.21577665 21.6738318,7.71111111 C21.6738318,7.46349466 21.7760518,7.23930795 21.9400734,7.07680509 C22.105788,6.91262491 22.3346313,6.81111111 22.5869159,6.81111111 C22.8392005,6.81111111 23.0680438,6.91262491 23.2337584,7.07680509 C23.39778,7.23930795 23.5,7.46349466 23.5,7.71111111 C23.5,7.90285989 23.4385667,8.08043615 23.3343866,8.22596758 C23.1788686,8.44321384 22.9290456,8.58981974 22.6449427,8.60811065 L22.6449427,8.60811065 L21.1605972,14.6170741 L12.0115304,15.1444444 L3.50047205,15.1444444 L1.42360095,8.91899273 C0.93081579,8.63323247 0.5,8.2325283 0.5,7.71111111 C0.5,7.46349466 0.602220025,7.23930795 0.766241598,7.07680509 C0.931956179,6.91262491 1.16079952,6.81111111 1.41308411,6.81111111 C1.6653687,6.81111111 1.89421205,6.91262491 2.05992663,7.07680509 C2.2239482,7.23930795 2.32616822,7.46349466 2.32616822,7.71111111 C2.32616822,8.20715813 1.91578238,8.60843261 1.42092936,8.61053072 L1.42092936,8.61053072 L3.8104504,10.9958041 C4.37166055,11.5560777 5.15032152,11.8776889 5.94715514,11.8776889 C6.88951338,11.8776889 7.78740147,11.4334703 8.35300224,10.6908978 L8.35300224,10.6908978 L11.7294406,6.25851633 C11.3596803,6.14664835 11.0869159,5.80449033 11.0869159,5.4 C11.0869159,5.15238355 11.1891359,4.92819684 11.3531575,4.76569398 C11.5188721,4.6015138 11.7477154,4.5 12,4.5 Z" id="Combined-Shape" stroke="#EC6C01"></path>
    </g>
</svg>