<?xml version="1.0" encoding="UTF-8"?>
<svg width="24px" height="24px" viewBox="0 0 24 24" version="1.1" xmlns="http://www.w3.org/2000/svg" xmlns:xlink="http://www.w3.org/1999/xlink">
    <title>ic_supplies_m</title>
    <g id="ic_supplies_m" stroke="none" stroke-width="1" fill="none" fill-rule="evenodd">
        <path d="M12.2774955,0.0890790698 L22.8732655,5.03531163 C23.039593,5.11289302 23.1491192,5.28005581 23.15537,5.46731163 C23.1581227,5.54025867 23.1450379,5.61138465 23.1185576,5.6763506 C23.1423933,5.7318357 23.1554325,5.79418965 23.1554325,5.85837796 L23.1554325,17.7936024 C23.1554325,17.9684351 23.058887,18.1289902 22.9034325,18.2125004 L12.8579605,23.6259178 C12.8287009,23.7532389 12.746251,23.8652325 12.6274698,23.9332188 C12.5501674,23.9776678 12.4622605,24.0000269 12.3751907,24.0000269 C12.3174894,24.0000269 12.2595062,23.990235 12.2043446,23.970651 L12.2703416,23.9418392 C12.1980688,23.980631 12.1184325,24.0000269 12.0387961,24.0000269 C11.9534325,24.0000269 11.8683416,23.9776678 11.7919779,23.9332188 C11.6814681,23.8684958 11.6031373,23.7638889 11.5712007,23.644143 L1.25788837,18.2125004 C1.09937674,18.1289902 1.00002791,17.9684351 1.00002791,17.7936024 L1.00002791,5.85837796 C1.00002791,5.79418965 1.01332988,5.7318357 1.0380871,5.67448034 C1.01097119,5.61138465 0.997839537,5.54025867 1.00038049,5.46731163 C1.00663136,5.28005581 1.11588571,5.11289302 1.28248502,5.03531163 L11.8787986,0.0890790698 C12.0054467,0.0301953488 12.1505756,0.0301953488 12.2774955,0.0890790698 Z" id="Fill-6" fill="#EC6C01" opacity="0.2"></path>
        <path d="M12.2774955,0.0890790698 L22.8732655,5.03531163 C23.039593,5.11289302 23.1491192,5.28005581 23.15537,5.46731163 C23.1581227,5.54025867 23.1450379,5.61138465 23.1185576,5.6763506 C23.1423933,5.7318357 23.1554325,5.79418965 23.1554325,5.85837796 L23.1554325,17.7936024 C23.1554325,17.9684351 23.058887,18.1289902 22.9034325,18.2125004 L12.8579605,23.6259178 C12.8287009,23.7532389 12.746251,23.8652325 12.6274698,23.9332188 C12.5501674,23.9776678 12.4622605,24.0000269 12.3751907,24.0000269 C12.3174894,24.0000269 12.2595062,23.990235 12.2043446,23.970651 L12.2703416,23.9418392 C12.1980688,23.980631 12.1184325,24.0000269 12.0387961,24.0000269 C11.9534325,24.0000269 11.8683416,23.9776678 11.7919779,23.9332188 C11.6814681,23.8684958 11.6031373,23.7638889 11.5712007,23.644143 L1.25788837,18.2125004 C1.09937674,18.1289902 1.00002791,17.9684351 1.00002791,17.7936024 L1.00002791,5.85837796 C1.00002791,5.79418965 1.01332988,5.7318357 1.0380871,5.67448034 C1.01097119,5.61138465 0.997839537,5.54025867 1.00038049,5.46731163 C1.00663136,5.28005581 1.11588571,5.11289302 1.28248502,5.03531163 L11.8787986,0.0890790698 C12.0054467,0.0301953488 12.1505756,0.0301953488 12.2774955,0.0890790698 Z M1.98933023,6.66250041 L1.98933023,17.5102065 L11.5550279,22.5469163 L11.5550279,11.6989163 L1.98933023,6.66250041 Z M22.188887,6.66250041 L12.8690279,11.6829163 L12.8690279,22.5309163 L22.188887,17.5102065 L22.188887,6.66250041 Z M4.6017443,10.9054847 L8.71562377,12.7337523 C8.89002184,12.8113918 9,12.9695081 9,13.1428427 L9,17.2569609 C9,17.4153351 8.90743263,17.5626179 8.75595876,17.6456741 C8.67325751,17.6910713 8.5798196,17.7142857 8.48551116,17.7142857 C8.40716261,17.7142857 8.32823369,17.6982935 8.25568873,17.6657933 L4.14151909,15.8372677 C3.96741119,15.7596282 3.85714286,15.6017699 3.85714286,15.4284352 L3.85714286,11.314575 C3.85714286,11.1559429 3.94942004,11.0084021 4.10118409,10.9256039 C4.25294815,10.8420318 4.4421454,10.8345516 4.6017443,10.9054847 Z M4.88583036,12.0540846 L4.88583036,15.1459927 L7.9713125,16.5171934 L7.9713125,13.4255432 L4.88583036,12.0540846 Z M6.76626443,3.56127383 L2.55929338,5.52563721 L12.0777394,10.856707 L16.0400279,8.63591628 L6.96709098,3.76898148 C6.87738672,3.72081233 6.80911296,3.64718522 6.76626443,3.56127383 Z M12.0777394,1.08284651 L7.75402791,3.09991628 L17.0360279,8.07891628 L21.5964571,5.52563721 L12.0777394,1.08284651 Z" id="Combined-Shape" fill="#EC6C01"></path>
    </g>
</svg>