<?xml version="1.0" encoding="UTF-8"?>
<svg width="24px" height="24px" viewBox="0 0 24 24" version="1.1" xmlns="http://www.w3.org/2000/svg" xmlns:xlink="http://www.w3.org/1999/xlink">
    <title>ic_volunteer_m</title>
    <g id="ic_volunteer_m" stroke="none" stroke-width="1" fill="none" fill-rule="evenodd">
        <path d="M17.061828,13.6005404 C19.6346541,14.5936009 21.4850554,17.0333999 21.5948384,19.9225838 L21.6,20.1947309 L21.6,20.6508444 C21.6,22.0023238 20.5454173,23.1082646 19.2123288,23.1945774 L19.0442983,23.2 L4.95570167,23.2 C3.60075176,23.2 2.49197102,22.1481184 2.40543648,20.8184445 L2.4,20.6508444 L2.4,20.1947309 C2.4,17.1867597 4.28602873,14.6235533 6.93979739,13.6 C8.36691594,14.7602792 10.1375399,15.3925692 12.0029799,15.3925692 C13.8705872,15.3925692 15.6395857,14.7608196 17.061828,13.6005404 Z M12.0025002,0.2666668 C15.8314666,0.2666668 18.9333332,3.36965304 18.9333332,7.2 C18.9333332,8.38077365 18.6370633,9.51970231 18.0807094,10.5313744 C17.8653304,10.9246255 17.611258,11.2966696 17.3215165,11.6439726 C17.177221,11.8160144 17.0258166,11.9803382 16.8687423,12.1353438 C16.7128137,12.2902585 16.5493513,12.4374844 16.3795797,12.5759609 C16.2309259,12.6976091 16.0722798,12.8138356 15.8947667,12.9326833 L15.599226,13.1230881 L15.4286654,13.227468 L15.2818373,13.3100358 C14.8892758,13.5216821 14.4758896,13.6948687 14.0465305,13.8270827 C13.3895427,14.0292852 12.7023027,14.1333332 12.0025002,14.1333332 C11.3026977,14.1333332 10.6154577,14.0292852 9.95839481,13.8270596 C9.52899308,13.6948325 9.11521374,13.521652 8.72365533,13.3108373 L8.64765401,13.2692209 L8.49167843,13.1774736 L8.29232619,13.0524955 C8.03818686,12.8915047 7.82133555,12.738732 7.62322392,12.5770242 C7.45314902,12.4387398 7.28937564,12.2918443 7.13138215,12.1359632 C6.97092844,11.9770779 6.81938612,11.8126045 6.67758384,11.642897 C6.38917295,11.2971861 6.13510023,10.9253404 5.91912523,10.5319846 C5.41335681,9.6113775 5.12265624,8.58648184 5.07398149,7.52084856 L5.0666668,7.2 L5.07068958,6.96162129 C5.19639932,3.24249933 8.25249565,0.2666668 12.0025002,0.2666668 Z" id="Combined-Shape" fill="#EC6C01" fill-rule="nonzero" opacity="0.2"></path>
        <path d="M17.061828,13.6005404 C19.6346541,14.5936009 21.4850554,17.0333999 21.5948384,19.9225838 L21.6,20.1947309 L21.6,20.6508444 C21.6,22.0023238 20.5454173,23.1082646 19.2123288,23.1945774 L19.0442983,23.2 L4.95570167,23.2 C3.60075176,23.2 2.49197102,22.1481184 2.40543648,20.8184445 L2.4,20.6508444 L2.4,20.1947309 C2.4,17.1867597 4.28602873,14.6235533 6.93979739,13.6 C8.36691594,14.7602792 10.1375399,15.3925692 12.0029799,15.3925692 C13.8705872,15.3925692 15.6395857,14.7608196 17.061828,13.6005404 Z M6.798,14.827 L6.65519583,14.9006577 C4.79421177,15.8915429 3.5606295,17.7967346 3.47180583,19.9457265 L3.46666667,20.1947309 L3.46666667,20.6508444 C3.46666667,21.4207964 4.05672546,22.0546352 4.81221284,22.1265403 L4.95570167,22.1333333 L19.0442983,22.1333333 C19.8188056,22.1333333 20.4544236,21.5447859 20.5265223,20.7935114 L20.5333333,20.6508444 L20.5333333,20.1947309 C20.5333333,17.9449478 19.2780611,15.9304415 17.3460197,14.9012099 L17.204,14.828 L17.1829952,14.8441892 C15.765977,15.8301615 14.0996806,16.3869104 12.3532783,16.4526525 L12.0029799,16.4592359 C10.2490199,16.4592359 8.56117319,15.9640595 7.10875203,15.0359575 L6.798,14.827 Z M12.0025002,0.2666668 C15.8314666,0.2666668 18.9333332,3.36965304 18.9333332,7.2 C18.9333332,8.38077365 18.6370633,9.51970231 18.0807094,10.5313744 C17.8653304,10.9246255 17.611258,11.2966696 17.3215165,11.6439726 C17.177221,11.8160144 17.0258166,11.9803382 16.8687423,12.1353438 C16.7128137,12.2902585 16.5493513,12.4374844 16.3795797,12.5759609 C16.2309259,12.6976091 16.0722798,12.8138356 15.8947667,12.9326833 L15.599226,13.1230881 L15.4286654,13.227468 L15.2818373,13.3100358 C14.8892758,13.5216821 14.4758896,13.6948687 14.0465305,13.8270827 C13.3895427,14.0292852 12.7023027,14.1333332 12.0025002,14.1333332 C11.3026977,14.1333332 10.6154577,14.0292852 9.95839481,13.8270596 C9.52899308,13.6948325 9.11521374,13.521652 8.72365533,13.3108373 L8.64765401,13.2692209 L8.49167843,13.1774736 L8.29232619,13.0524955 C8.03818686,12.8915047 7.82133555,12.738732 7.62322392,12.5770242 C7.45314902,12.4387398 7.28937564,12.2918443 7.13138215,12.1359632 C6.97092844,11.9770779 6.81938612,11.8126045 6.67758384,11.642897 C6.38917295,11.2971861 6.13510023,10.9253404 5.91912523,10.5319846 C5.41335681,9.6113775 5.12265624,8.58648184 5.07398149,7.52084856 L5.0666668,7.2 L5.07068958,6.96162129 C5.19639932,3.24249933 8.25249565,0.2666668 12.0025002,0.2666668 Z M12.0025002,1.3333332 C8.83529633,1.3333332 6.25311811,3.84172675 6.13738233,6.98004886 L6.1333332,7.2 L6.14080999,7.4987238 C6.18558093,8.39112295 6.4306083,9.24771944 6.85406241,10.0184968 C7.03689857,10.3514968 7.25210659,10.6664624 7.49638349,10.9592713 C7.61611987,11.1025703 7.74495523,11.2423992 7.88122436,11.3773376 C8.01433949,11.5086718 8.15268639,11.6327612 8.29693013,11.7500441 C8.41873104,11.8494628 8.55219899,11.9468939 8.70479786,12.0486119 L8.95979209,12.2125764 L9.16845343,12.3382681 L9.22809223,12.370987 C9.5597455,12.549547 9.90930841,12.6958508 10.2722357,12.8076082 C10.8279046,12.9786276 11.4094061,13.0666668 12.0025002,13.0666668 C12.5955943,13.0666668 13.1770958,12.9786276 13.7326897,12.8076313 C14.0953557,12.6959543 14.4443432,12.5497473 14.77641,12.3707171 L14.8933612,12.3047098 L15.1386107,12.1523894 C15.3598036,12.0117523 15.5422641,11.8828637 15.7047115,11.7499286 C15.848158,11.6329238 15.9857315,11.5090152 16.1182303,11.3773823 C16.2526383,11.2447407 16.3813565,11.105039 16.5033515,10.9595887 C16.7481463,10.6661592 16.9631571,10.351314 17.1456105,10.0181821 C17.6163459,9.16219684 17.8666668,8.19990678 17.8666668,7.2 C17.8666668,3.95867046 15.2422768,1.3333332 12.0025002,1.3333332 Z" id="Combined-Shape" fill="#EC6C01" fill-rule="nonzero"></path>
    </g>
</svg>