<?xml version="1.0" encoding="UTF-8"?>
<svg width="24px" height="24px" viewBox="0 0 24 24" version="1.1" xmlns="http://www.w3.org/2000/svg" xmlns:xlink="http://www.w3.org/1999/xlink">
    <title>ic_volunteer_company_m</title>
    <g id="ic_volunteer_company_m" stroke="none" stroke-width="1" fill="none" fill-rule="evenodd">
        <path d="M14.75,2 C15.3575132,2 15.85,2.49248678 15.85,3.1 L15.85,4.75 L20.8,4.75 C22.0150264,4.75 23,5.73497355 23,6.95 L23,20.15 C23,21.3650264 22.0150264,22.35 20.8,22.35 L3.2,22.35 C1.98497355,22.35 1,21.3650264 1,20.15 L1,6.95 C1,5.73497355 1.98497355,4.75 3.2,4.75 L8.15,4.75 L8.15,4.75 L8.15,3.1 C8.15,2.49248678 8.64248678,2 9.25,2 L14.75,2 Z" id="Combined-Shape" fill="#EC6C01" fill-rule="nonzero" opacity="0.2"></path>
        <path d="M14.75,2 C15.3575132,2 15.85,2.49248678 15.85,3.1 L15.85,4.75 L20.8,4.75 C22.0150264,4.75 23,5.73497355 23,6.95 L23,20.15 C23,21.3650264 22.0150264,22.35 20.8,22.35 L3.2,22.35 C1.98497355,22.35 1,21.3650264 1,20.15 L1,6.95 C1,5.73497355 1.98497355,4.75 3.2,4.75 L8.15,4.75 L8.15,4.75 L8.15,3.1 C8.15,2.49248678 8.64248678,2 9.25,2 L14.75,2 Z M14.749,11.9 L14.75,13 C14.75,13.6075132 14.2575132,14.1 13.65,14.1 L10.35,14.1 C9.74248678,14.1 9.25,13.6075132 9.25,13 L9.249,11.9 L2.099,11.9 L2.1,20.15 C2.1,20.7170123 2.5290107,21.1838239 3.08014288,21.2435453 L3.2,21.25 L20.8,21.25 C21.3670123,21.25 21.8338239,20.8209893 21.8935453,20.2698571 L21.9,20.15 L21.9,11.9 L14.749,11.9 Z M20.8,5.85 L3.2,5.85 C2.63298766,5.85 2.16617613,6.2790107 2.10645465,6.83014288 L2.1,6.95 L2.099,10.8 L9.25,10.8 C9.25,10.1924868 9.74248678,9.7 10.35,9.7 L13.65,9.7 C14.2170123,9.7 14.6838239,10.1290107 14.7435453,10.6801429 L14.749,10.8 L21.9,10.8 L21.9,6.95 C21.9,6.38298766 21.4709893,5.91617613 20.9198571,5.85645465 L20.8,5.85 Z M14.75,3.1 L9.25,3.1 L9.25,4.75 L14.75,4.75 L14.75,3.1 Z" id="Combined-Shape" fill="#EC6C01" fill-rule="nonzero"></path>
    </g>
</svg>