<?xml version="1.0" encoding="UTF-8"?>
<svg width="72px" height="72px" viewBox="0 0 72 72" version="1.1" xmlns="http://www.w3.org/2000/svg" xmlns:xlink="http://www.w3.org/1999/xlink">
    <title>logo_white_m</title>
    <g id="logo_white_m" stroke="none" stroke-width="1" fill="none" fill-rule="evenodd">
        <path d="M41.3572509,4.98781125 C47.7052645,-0.661181212 57.7236399,0.0133253502 64.2972695,4.98781125 C64.8459265,5.40937785 65.3761241,5.86590363 65.879658,6.35533218 C67.0405548,7.46271566 68.0701842,8.71713336 68.9357291,10.0887671 C69.7992231,11.4604009 70.5006837,12.9451379 71.0052431,14.5049343 C71.4585261,15.8703988 71.755929,17.3047535 71.8707881,18.782293 C71.9241155,19.3046243 71.9579579,19.8248992 71.9743663,20.3369484 C72.1230678,23.0174951 71.6000489,25.4440735 71.0452386,27.9919809 C70.8637203,28.615077 70.6514362,29.2309755 70.417616,29.8396765 C70.1817447,30.4483776 69.9233119,31.0509093 69.645394,31.643159 C69.3223529,32.3546812 68.9675205,33.0446109 68.5870499,33.7160328 C68.0855671,34.6095484 67.5358845,35.4670765 66.9492829,36.2865609 C66.3637068,37.1091299 65.749416,37.8987961 65.0941041,38.6442492 C63.790659,40.1402966 62.3651762,41.4759429 60.8873914,42.7087682 C60.8873914,42.7087682 59.797256,44.051612 59.5777932,44.7271468 C57.6292914,50.1427353 61.3940019,53.022755 63.5209454,58.1154852 C67.0549122,66.5766353 64.88182,71 64.88182,71 L64.88182,71 L50.3603544,70.026284 C51.5448384,54.2956805 47.9267783,51.6490648 45.5280701,51.543159 C45.01223,51.7313217 44.4974153,51.9205125 43.9826006,52.1035341 L43.9826006,52.1035341 L41.4700589,52.9867676 L41.553,52.946 L40.6188713,53.3620647 C40.4670933,53.4324971 40.3127514,53.5013873 40.1590505,53.570663 L39.7030755,53.7815749 L39.7030755,53.7815749 L39.105535,54.0698548 L39.105535,54.0698548 L38.81702,54.2216493 C38.6437059,54.3121318 38.4693662,54.4067273 38.2940011,54.5033791 C38.2960521,54.5064638 38.3011798,54.512633 38.3042563,54.5167459 C38.4498812,54.6750904 38.5873019,54.8406324 38.7175438,55.0133719 C38.9605938,55.3259481 39.1821077,55.6580603 39.3841365,56.0014829 C39.5882164,56.3459336 39.7666582,56.707864 39.9256149,57.0769918 C40.0866227,57.443035 40.2086604,57.8306707 40.3142897,58.2224191 C40.419919,58.6141676 40.4855528,59.0172264 40.5265739,59.4233698 C40.5727226,59.8243722 40.5655439,60.2366849 40.5296504,60.6397437 C40.4968336,61.0438307 40.417868,61.439692 40.2978813,61.8211584 C40.1809712,62.2005684 40.02304,62.5614705 39.8261388,62.8915263 C39.6394928,63.2246667 39.4118258,63.527989 39.1656992,63.7994368 C38.9226493,64.0760256 38.6385782,64.3012039 38.3606603,64.5181564 C38.3801454,64.4934794 38.3996304,64.4698305 38.4170643,64.4451535 C38.3873241,64.4698305 38.3565582,64.4934794 38.3257924,64.5181564 C38.5514084,64.2343702 38.7667691,63.9474992 38.9411088,63.6338948 C39.1216015,63.3295443 39.2723541,63.0056577 39.3790089,62.6704609 C39.4918169,62.3373204 39.5656548,61.9959543 39.6015483,61.6525318 C39.6425694,61.3111656 39.6507736,60.9677431 39.6169312,60.631518 C39.5882164,60.2922083 39.5297614,59.9611243 39.4405405,59.638266 C39.3502941,59.3164359 39.2446648,58.9997468 39.1051931,58.7005373 C38.8334284,58.0980056 38.480647,57.5396869 38.0714617,57.0410044 C37.6633018,56.5412938 37.1905338,56.1094451 36.6962297,55.7403172 L36.6962297,55.7403172 L36.5085582,55.6035651 L36.4993284,55.5994523 L36.4911242,55.6035651 L36.3044783,55.7403172 C35.8091486,56.1094451 35.3363805,56.5412938 34.9282207,57.0410044 C34.5200609,57.5396869 34.168305,58.0980056 33.8944893,58.7005373 C33.753992,58.9997468 33.6483627,59.3164359 33.5591419,59.638266 C33.4709465,59.9611243 33.4114659,60.2922083 33.3827512,60.631518 C33.3499343,60.9677431 33.3581385,61.3111656 33.3981341,61.6525318 C33.4340275,61.9959543 33.5078655,62.3373204 33.621699,62.6704609 C33.7283539,63.0056577 33.8791064,63.3295443 34.0585736,63.6338948 C34.2329133,63.9474992 34.448274,64.2343702 34.67389,64.5181564 C34.6441497,64.4934794 34.6123583,64.4698305 34.582618,64.4451535 C34.6021031,64.4698305 34.619537,64.4934794 34.6400476,64.5181564 C34.3611042,64.3012039 34.0760076,64.0760256 33.8350087,63.7994368 C33.5878566,63.527989 33.3612151,63.2246667 33.1735436,62.8915263 C32.9776679,62.5614705 32.8176857,62.2005684 32.7018011,61.8211584 C32.5807889,61.439692 32.5038743,61.0438307 32.4700319,60.6397437 C32.4341385,60.2366849 32.4269598,59.8243722 32.4731085,59.4233698 C32.5141296,59.0172264 32.5797634,58.6141676 32.6853927,58.2224191 C32.791022,57.8306707 32.9140852,57.443035 33.0740675,57.0769918 C33.2330242,56.707864 33.4114659,56.3459336 33.6165714,56.0014829 C33.8175747,55.6580603 34.0390886,55.3259481 34.281113,55.0133719 C34.4123805,54.8406324 34.5508267,54.6750904 34.695426,54.5167459 C34.6985026,54.512633 34.7036302,54.5064638 34.7067068,54.5033791 C34.5303161,54.4067273 34.3559765,54.3121318 34.1836879,54.2216493 C33.9026935,54.0633047 33.5919587,53.9286091 33.2976324,53.7815749 C32.9981785,53.6376253 32.6843671,53.5029296 32.3818366,53.3620647 L32.3818366,53.3620647 L31.447,52.946 L31.5296235,52.9867676 L29.0170818,52.1035341 C28.5012416,51.9205125 27.9874524,51.7313217 27.4716122,51.543159 C25.0739296,51.6490648 21.454844,54.2956805 22.6393279,70.026284 L22.6393279,70.026284 L8.11683685,71 C8.11683685,71 5.94477018,66.5766353 9.47873701,58.1154852 C11.6056805,53.022755 15.3714165,50.1427353 13.4229147,44.7271468 C13.2014009,44.051612 12.1122909,42.7087682 12.1122909,42.7087682 C10.6345062,41.4759429 9.20902335,40.1402966 7.90455271,38.6442492 C7.25129187,37.8987961 6.63495001,37.1091299 6.05142501,36.2865609 C5.46482344,35.4670765 4.91411532,34.6095484 4.4126325,33.7160328 C4.03113637,33.0446109 3.67732948,32.3546812 3.35531393,31.643159 C3.075345,31.0509093 2.81793766,30.4483776 2.58104087,29.8396765 C2.34824619,29.2309755 2.13596205,28.615077 1.95444374,27.9919809 C1.40065903,25.4440735 0.877640145,23.0174951 1.02531607,20.3369484 C1.03967345,19.8248992 1.07454137,19.3046243 1.12889432,18.782293 C1.24375337,17.3047535 1.54115626,15.8703988 1.9944393,14.5049343 C2.49899869,12.9451379 3.19943379,11.4604009 4.06395324,10.0887671 C4.92949823,8.71713336 5.95912756,7.46271566 7.12104991,6.35533218 C7.62355825,5.86590363 8.15375583,5.40937785 8.70343843,4.98781125 C15.277068,0.0133253502 25.2944179,-0.661181212 31.643457,4.98781125 C32.2556968,5.53584783 32.8166601,6.14043603 33.3222451,6.797463 C34.3334149,8.10843231 35.107688,9.62915671 35.5650731,11.3339309 C35.0923051,10.6409166 34.5785159,9.98697422 34.0278078,9.37416033 C33.4750486,8.76134644 32.8843449,8.19068921 32.2628754,7.66321685 C25.6020761,1.5114291 14.4166506,2.33296987 8.70343843,9.8759274 C8.31373808,10.404428 7.95480355,10.9648031 7.63586458,11.5529399 C7.03182904,12.6233078 6.56726521,13.7738762 6.27293889,14.985109 C6.08629294,15.5670765 5.92733622,16.1603544 5.79811979,16.7587733 C5.54173798,17.9586958 5.40841944,19.1884365 5.40226628,20.4109796 C5.36227072,21.5337863 5.41867471,22.6586493 5.56737616,23.7650046 C5.72017972,24.8734163 5.96733178,25.9664048 6.31190893,27.0244342 C6.52726965,27.6691226 6.78262593,28.2994161 7.07490119,28.9101736 C7.40922306,29.6895577 7.78866814,30.4524904 8.1978535,31.1958871 C8.60703887,31.940312 9.06339848,32.6610881 9.55462603,33.3582153 C10.0397004,34.0594554 10.5657959,34.7339619 11.118555,35.3889325 C12.2117671,36.7081275 13.4372721,37.9193603 14.7304619,39.0555337 C15.0596562,39.3310943 15.3785952,39.6220781 15.7180447,39.889413 L15.7180447,39.889413 L16.7435719,40.7181513 L17.81935,41.5756794 L18.3536496,41.997246 L18.443896,42.0681926 C18.3249349,41.5581998 18.2593011,41.0276428 18.2593011,40.4816627 C18.2593011,36.6340963 21.3707508,33.5145034 25.2082736,33.5145034 C29.0468221,33.5145034 32.1572461,36.6340963 32.1572461,40.4816627 C32.1572461,43.8531673 29.7677677,46.6642968 26.5937609,47.3069288 C26.9639763,47.5002325 27.3362426,47.6914798 27.7095346,47.8796424 L27.7095346,47.8796424 L32.5305381,50.2373308 L32.6177079,50.277431 C32.9202384,50.4583962 33.2217434,50.6331921 33.5242739,50.8213547 C33.82783,51.0146585 34.1303605,51.1935672 34.4349421,51.3961248 L34.4349421,51.3961248 L35.0409148,51.7969749 L35.0409148,51.7969749 L35.3425337,52.0109951 C35.6450642,52.2279477 35.9516969,52.4449003 36.2224361,52.65774 C36.3096059,52.7235455 36.4049799,52.8016896 36.4993284,52.8798336 C36.5947025,52.8016896 36.691102,52.7235455 36.7782718,52.65774 C37.0479855,52.4449003 37.3546181,52.2279477 37.6571487,52.0109951 C37.7573085,51.9359357 37.8580381,51.8653319 37.9590335,51.7969749 L38.5657658,51.3961248 C38.8703474,51.1935672 39.1728779,51.0146585 39.4774595,50.8213547 C39.777939,50.6331921 40.079444,50.4583962 40.3819745,50.277431 L40.3819745,50.277431 L40.4691443,50.2373308 L45.2901478,47.8796424 C45.6408781,47.7027901 45.9905829,47.5218249 46.3392622,47.3439444 C43.0709069,46.7753436 40.5840034,43.920001 40.5840034,40.4816627 C40.5840034,36.6340963 43.695453,33.5145034 47.5319504,33.5145034 C51.3694732,33.5145034 54.4798973,36.6340963 54.4798973,40.4816627 C54.4798973,40.5783145 54.4768207,40.6739382 54.4737442,40.77059 L54.4737442,40.77059 L54.4757952,40.7685336 C54.4511826,41.3032034 54.3701659,41.8173091 54.2378729,42.308794 L54.2378729,42.308794 L54.6470583,41.997246 L55.1793069,41.5756794 L56.2561105,40.7181513 L57.2826632,39.889413 C57.6210872,39.6220781 57.9390007,39.3310943 58.270246,39.0555337 C59.5613847,37.9193603 60.7879153,36.7081275 61.8811273,35.3889325 C62.4338865,34.7339619 62.9589564,34.0594554 63.4460819,33.3582153 C63.9362839,32.6610881 64.3926435,31.940312 64.8018289,31.1958871 C65.2099887,30.4524904 65.5884083,29.6895577 65.9258067,28.9101736 C66.218082,28.2994161 66.4724127,27.6691226 66.688799,27.0244342 C67.0333761,25.9664048 67.2805282,24.8734163 67.4312807,23.7650046 C67.5820332,22.6586493 67.6374117,21.5337863 67.5974161,20.4109796 C67.5922885,19.1884365 67.4579444,17.9586958 67.2015626,16.7587733 C67.0713206,16.1603544 66.9123639,15.5670765 66.727769,14.985109 C66.4334427,13.7738762 65.9699044,12.6233078 65.3648433,11.5529399 C65.0438533,10.9648031 64.6859443,10.404428 64.2972695,9.8759274 C58.5840573,2.33296987 47.3976063,1.5114291 40.7368069,7.66321685 C40.1153374,8.19068921 39.5246338,8.76134644 38.9729001,9.37416033 C38.4201409,9.98697422 37.9084028,10.6409166 37.4335837,11.3339309 C37.8930199,9.62915671 38.6662675,8.10843231 39.6784628,6.797463 C40.1830222,6.14043603 40.7450112,5.53584783 41.3572509,4.98781125 Z M57.3186592,11.2990327 C58.4222112,11.2990327 59.4419624,11.5636275 60.372189,12.0925995 C60.8618589,12.3711076 61.2930444,12.7201956 61.6652493,13.1389729 L61.8464344,13.3541649 L61.864,13.378 L61.8640246,12.6963718 L62.9383198,12.6963718 L62.9383198,25.1584365 C62.9383198,28.8677049 59.2873157,31.8635465 54.8204749,31.8635465 C50.4434488,31.8635465 46.8480307,28.9859246 46.7059648,25.3800933 L46.7016045,25.1584365 L46.7016045,20.1087465 L47.7779508,20.1087465 L47.7779508,25.1584365 C47.7779508,28.2817619 50.9266603,30.8453281 54.8204749,30.8453281 C58.6285339,30.8453281 61.7266798,28.3912817 61.8595821,25.3612699 L61.8640246,25.1584365 L61.864,20.368 L61.8391701,20.400519 L61.6473897,20.6160614 C61.2789225,21.0004411 60.8665226,21.326009 60.411173,21.5932262 C59.9623896,21.8570313 59.4715441,22.0573698 58.9348356,22.1978818 C58.405048,22.3322882 57.8664413,22.3998904 57.3186592,22.3998904 C56.4832717,22.3998904 55.708855,22.2607141 54.9961089,21.9817366 L54.7935175,21.8952114 C54.854647,22.0371497 54.9046567,22.1853854 54.9432538,22.3392125 C54.9856033,22.5101425 55.0174502,22.6832265 55.0388034,22.8598915 L55.0629641,23.1277533 L55.0705775,23.3833326 L55.0705775,27.4994068 L53.9778227,27.4994068 L53.9778227,23.4090379 C53.9778227,23.1861462 53.9509673,22.9394487 53.8978246,22.6769087 C53.849135,22.4400557 53.7585823,22.2238359 53.6294652,22.0336535 C53.5020965,21.8495865 53.3266095,21.6917261 53.1038823,21.5633405 C52.8988725,21.44358 52.6184252,21.3805218 52.2690657,21.3805218 C51.9551463,21.3805218 51.6574103,21.4398989 51.383816,21.556803 C51.1123881,21.6727813 50.8738165,21.8426151 50.6736409,22.0617267 C50.4688752,22.2867148 50.3014378,22.5657193 50.1790162,22.8899077 C50.1056067,23.083744 50.0534513,23.2993566 50.0235875,23.5303923 L50.0011927,23.7663338 L49.9931922,24.028021 L49.9931922,27.4994068 L48.8994119,27.4994068 L48.8970053,22.3198147 L48.8706434,21.5078715 L48.8385828,21.0718579 L48.783455,20.5586917 L49.8815405,20.5586917 L49.9251825,20.9701096 L49.9374844,21.1505847 L49.945,21.336 L50.0751949,21.2088626 L50.1650656,21.1296594 L50.2573882,21.0541513 L50.4488996,20.9147197 C50.7171772,20.7346496 51.0061098,20.598062 51.3145011,20.5068638 C51.6257725,20.4167306 51.9455634,20.370529 52.2690657,20.370529 C52.4421916,20.370529 52.607415,20.3803937 52.7643959,20.4001732 C52.4312822,20.0056616 52.1605544,19.5594901 51.9503995,19.0646871 C51.6643332,18.386072 51.5205569,17.6534537 51.5205569,16.871054 C51.5205569,16.0879917 51.6641962,15.3525723 51.9502209,14.6675636 C52.2368161,13.9841769 52.6371971,13.3916043 53.1519173,12.8895724 C53.6686033,12.3867068 54.2845314,11.9952474 54.9959904,11.7182611 C55.7100168,11.4387825 56.4846451,11.2990327 57.3186592,11.2990327 Z M24.1513614,12.5569707 L24.3497705,12.6521077 L24.581192,12.7846093 C24.7325226,12.8777727 24.8781026,12.980534 25.018832,13.0925332 C26.0757035,13.9119862 26.6468418,15.1681312 26.4351258,16.9097505 L26.399523,17.1618611 L26.3599163,17.4086499 L25.3143755,17.2410814 L25.354124,16.9940971 C25.5576746,15.7293002 25.294785,14.6462573 24.3634765,13.9250801 C24.204457,13.7973395 24.0359929,13.685934 23.8644321,13.594787 C23.132245,13.2190875 22.1947368,13.108519 21.3025614,13.2963266 C20.4081616,13.4822245 19.6578405,13.9487993 19.2439005,14.5685146 C19.1410018,14.7237488 19.0547033,14.8837595 18.9852286,15.0494033 C18.916309,15.2097153 18.8622231,15.3826246 18.8239326,15.5645603 C18.6777973,16.2054571 18.75544,16.8577434 19.0578694,17.5140868 L19.1015941,17.6060872 L19.2067658,17.8048979 L19.2626574,17.9012268 C19.6488085,18.60162 20.256352,19.1876339 21.1829103,19.7450241 C21.5671324,19.9768425 21.9735844,20.187587 22.4902588,20.4347231 L23.6491815,20.9476895 C24.8653524,21.4999467 25.4930291,21.8973939 26.0475754,22.5464912 L26.1793302,22.7068784 C26.5522578,23.2110308 26.7919897,23.9215093 26.7952867,24.5153224 C26.9512077,26.1026637 26.2194674,27.5454023 24.7976512,28.467489 C23.9864843,28.9938623 23.031684,29.2961818 22.0359747,29.3423897 C21.9470794,29.3466851 21.8569152,29.3488503 21.7675272,29.3488503 C20.8120004,29.3488503 19.890103,29.1059881 19.090015,28.6448523 C18.6801503,28.4259015 18.3089965,28.1599422 17.9944762,27.8612195 C17.7732357,27.6684734 17.5702531,27.4460797 17.3957474,27.2075899 C17.22101,26.9714578 17.0706232,26.7088349 16.9483619,26.4283312 C16.7417558,25.9577987 16.6221817,25.4370866 16.5922342,24.8825147 L16.5847413,24.6024827 L16.5847413,24.3524827 L17.6436536,24.3524827 L17.6436536,24.6024827 C17.6436536,25.1184261 17.7362021,25.5881639 17.9184509,26.0033715 C18.0080384,26.2104348 18.118382,26.4027358 18.248906,26.5794598 C18.3345784,26.6969362 18.4296205,26.8086787 18.5291543,26.9105558 L18.6812142,27.055456 L18.7120224,27.0808235 C18.9138949,27.2740243 19.1441506,27.4484706 19.4090919,27.6075267 L19.6143999,27.7239855 L19.8250407,27.8373121 C21.1802079,28.5145119 22.9219104,28.4218774 24.2220379,27.578091 C25.2474912,26.9134641 25.7939278,25.9189081 25.7537173,24.8096216 L25.7365463,24.5541567 C25.7365463,24.1780519 25.5843759,23.6824688 25.3388726,23.3507863 C24.9026619,22.8040958 24.3753266,22.4494842 23.3647956,21.980735 L22.0428146,21.3956574 C21.4802737,21.1254011 21.0536257,20.9041035 20.6365311,20.6533688 C19.6416046,20.0536804 18.9422507,19.405896 18.4657644,18.6364283 L18.3412847,18.4235013 C18.2479412,18.2652934 18.1657219,18.1088305 18.0968907,17.9572 C17.7024432,17.1041402 17.5955911,16.1946483 17.7888582,15.3375942 C17.8381821,15.1013188 17.9136664,14.8625869 18.0115398,14.6321484 C18.1065605,14.4076629 18.2255971,14.1872427 18.3642642,13.9787002 C19.4994446,12.2836714 22.145157,11.6566794 24.1513614,12.5569707 Z M28.271705,12.0657698 L28.271,19.507 L28.4087287,19.3303705 C28.5176708,19.1981041 28.6333478,19.0736627 28.7551636,18.9576838 L28.9424167,18.7901421 L29.1384306,18.6357725 C29.4704667,18.3899014 29.8390635,18.1997307 30.2357025,18.0682916 C30.6251035,17.9421728 31.0366327,17.8782479 31.4561957,17.8782479 C32.124039,17.8782479 32.6961654,18.001545 33.1557795,18.2493327 C33.6137544,18.495119 33.9839681,18.8265622 34.2561033,19.235841 C34.5199859,19.6277608 34.7110617,20.0796691 34.8229,20.5732695 C34.9086034,20.9565074 34.9608014,21.3469116 34.9782524,21.7364178 L34.9848063,22.028253 L34.9848063,27.7781549 L33.8900005,27.7781549 L33.8900005,22.0683533 C33.8900005,21.7248315 33.8532244,21.3501291 33.7804624,20.9577598 C33.7100651,20.5829144 33.5794498,20.2409971 33.3919459,19.9392604 C33.2075978,19.6457605 32.955213,19.3959924 32.640512,19.1971559 C32.3394584,19.0070407 31.9411199,18.9077766 31.4561957,18.9077766 C31.020825,18.9077766 30.6068876,18.9985475 30.2261267,19.177142 C29.8427692,19.3570153 29.506178,19.6191758 29.2257654,19.9573089 C28.9393489,20.3001795 28.7058534,20.7279116 28.5338734,21.2276663 C28.3853923,21.6575485 28.2988367,22.1491754 28.2771368,22.689667 L28.271705,22.9639252 L28.271705,27.7781549 L27.1768992,27.7781549 L27.1768992,12.0657698 L28.271705,12.0657698 Z M38.6014541,20.4984385 C39.4642914,20.4984385 40.1697591,20.6987275 40.691799,21.1009131 C41.1461721,21.4529824 41.4140688,21.9680795 41.4927109,22.6282905 L41.5106231,22.8306892 L41.5167994,23.0475188 L41.5167994,25.6704856 C41.5167994,25.8819953 41.5285585,26.1135292 41.5515772,26.3563588 L41.5639082,26.4668621 L41.6034744,26.7413618 L41.7526989,27.5933853 L40.7062886,27.5933853 L40.6193678,27.2144138 L40.5717467,26.9561705 C40.5643881,26.9119224 40.5577233,26.8691618 40.5523589,26.831026 L40.535,26.676 L40.4371797,26.7734215 C40.2856735,26.9107249 40.1160444,27.0303392 39.9289952,27.1316977 C39.3869417,27.4233169 38.7984705,27.5717929 38.1820135,27.5717929 C37.8710978,27.5717929 37.5610602,27.532729 37.2593762,27.4551973 C36.9485283,27.3767214 36.6630663,27.2573733 36.4107444,27.0992575 C36.1445542,26.9311305 35.92638,26.713271 35.7636502,26.4510565 C35.6006664,26.1882749 35.5066416,25.6580011 35.5066416,25.2365805 C35.5066416,24.7206823 35.6694716,24.286439 35.9939628,23.9526415 C36.2881349,23.6542963 36.6531046,23.422412 37.0770552,23.2641249 C37.4837786,23.1098559 37.9253689,23.0088121 38.3927908,22.9621657 C38.6168811,22.940491 38.8313614,22.9240601 39.0363293,22.9129984 L39.336659,22.9004484 L39.6198027,22.8962271 L40.444,22.896 L40.4439504,22.8565578 C40.4210126,22.5107964 40.3291912,22.2454856 40.1676445,22.0464078 L40.0810567,21.9523225 L39.9828247,21.8688811 C39.6423229,21.6141911 39.1801528,21.482726 38.6014541,21.482726 C38.2328028,21.482726 37.8918948,21.5399698 37.5833771,21.6530416 C37.3914027,21.7247146 37.2110787,21.8098968 37.0468088,21.9058056 L36.8880532,22.0051868 L36.7291499,22.1192552 L36.4466903,22.3380907 L35.7937347,21.5419863 L36.1004341,21.3145898 C36.4489128,21.0490094 36.8528328,20.8441711 37.3010188,20.7029158 C37.7393365,20.5672785 38.1764643,20.4984385 38.6014541,20.4984385 Z M43.040445,20.5311356 L43.0770828,20.8937512 L43.095,21.373 L43.1957888,21.2667127 L43.2632988,21.2036476 L43.3330084,21.1438622 L43.4789881,21.0342229 C43.8196108,20.8018609 44.1866724,20.6531461 44.5803676,20.5902344 L44.7794356,20.5659387 L44.9992058,20.5568409 L45.8437117,20.5537236 L45.9793814,20.5627765 L46.2778096,20.6159692 L46.2778096,21.6212283 L45.9728399,21.5524898 L45.8898243,21.5287251 L45.0679161,21.5308463 C44.7258906,21.5308463 44.4394954,21.6008378 44.2160751,21.7352392 C43.977187,21.8800401 43.7783373,22.0695901 43.6246257,22.2989476 C43.4623826,22.5415388 43.3419215,22.8129913 43.2649513,23.1113235 C43.2250306,23.2646726 43.1949853,23.4183697 43.1750466,23.5691491 L43.1527473,23.7927219 L43.1448239,24.0282267 L43.1448239,27.5253177 L42.1177029,27.5253177 L42.1169313,22.5279978 L42.0890266,21.677443 L42.0506961,20.9326279 L42.003585,20.5311356 L43.040445,20.5311356 Z M13.1830204,17.959785 L13.1830204,27.475141 L12.1651291,27.475141 L12.1651291,17.959785 L13.1830204,17.959785 Z M40.449,23.878 L39.7541467,23.8784582 C39.386326,23.8784582 38.994074,23.8977664 38.5899038,23.9359764 C38.2068455,23.9718609 37.8461599,24.0472414 37.5222229,24.1577836 C37.2270423,24.2598048 36.9845999,24.4055595 36.8016893,24.5880542 C36.6479141,24.7430106 36.5727326,24.9486578 36.5727326,25.2365805 C36.5727326,25.516718 36.6395994,25.8925049 36.6968554,25.9780165 C36.7898333,26.1174284 36.9089661,26.2287574 37.0556824,26.3119932 C37.2156468,26.4051767 37.3961217,26.4741415 37.5942841,26.517375 C37.8048762,26.5641896 38.0010165,26.5875054 38.1820135,26.5875054 C38.6369715,26.5875054 39.0104604,26.5157189 39.2935131,26.3769992 C39.587441,26.2347961 39.8175997,26.058533 39.9840292,25.8488468 C40.1555469,25.6359358 40.2758296,25.3986237 40.3417743,25.1441174 C40.3776978,25.00533 40.4046943,24.8678552 40.4225752,24.7347598 L40.4425363,24.5387845 L40.4496828,24.3327828 L40.449,23.878 Z M57.310455,12.2123736 C56.5718203,12.2123736 55.9098719,12.3400234 55.3221877,12.593661 C54.7300579,12.8511842 54.2318697,13.1900124 53.8211814,13.6143697 C53.4096846,14.0416084 53.0939028,14.5345154 52.873119,15.0956835 C52.6521438,15.6623116 52.5415248,16.2547196 52.5415248,16.8751668 C52.5415248,17.4936308 52.6525381,18.0879052 52.8728462,18.6508691 C53.0939028,19.2127337 53.4096846,19.7056406 53.8207651,20.1324482 C54.2335248,20.5589467 54.7317549,20.8953726 55.3189584,21.1429565 C55.908029,21.3893709 56.5709133,21.513283 57.310455,21.513283 C58.016613,21.513283 58.6648636,21.3892735 59.2520759,21.1432297 C59.8414681,20.8947241 60.3488982,20.5571779 60.7773476,20.12956 C61.2054457,19.7013214 61.5409024,19.2069412 61.785279,18.6427213 L61.8342275,18.5329426 C61.8414598,18.5185526 61.8480016,18.5072935 61.8535118,18.5009318 L61.8640246,18.4956277 L61.879867,15.2970445 C61.8511194,15.2201836 61.8187864,15.1393889 61.7852678,15.060289 C61.5403403,14.4967532 61.2046529,14.0054499 60.7791866,13.5876352 C60.3502309,13.1673313 59.842222,12.8333068 59.2519392,12.5844256 C58.6655783,12.3367881 58.0177715,12.2123736 57.310455,12.2123736 Z M47.2104476,17.5462385 C47.3777626,17.5462385 47.5274324,17.6123898 47.6479391,17.7348526 C47.7703237,17.8575576 47.8337395,18.0203783 47.8337395,18.2023819 C47.8337395,18.3970732 47.7665903,18.5675159 47.6338735,18.6920503 C47.5091918,18.8091464 47.3659513,18.8739485 47.2104476,18.8739485 C47.044966,18.8739485 46.8942881,18.8076023 46.7750071,18.6863626 C46.6506767,18.5617067 46.5892067,18.3940037 46.5892067,18.2023819 C46.5892067,18.0192516 46.6522809,17.856206 46.7726379,17.7372604 C46.893039,17.6132368 47.0441767,17.5462385 47.2104476,17.5462385 Z M12.6740747,16.2749581 C12.8411375,16.2749581 12.9923474,16.3417902 13.1117375,16.4647804 C13.2343539,16.5894018 13.2963411,16.7496374 13.2963411,16.933158 C13.2963411,17.1276758 13.2303488,17.2954063 13.0976306,17.4217343 C12.9746365,17.5387264 12.8293716,17.6026681 12.6740747,17.6026681 C12.5076105,17.6026681 12.3578588,17.5383209 12.236265,17.4147308 C12.1134721,17.2882435 12.0518084,17.1230999 12.0518084,16.933158 C12.0518084,16.7499134 12.1146982,16.5895267 12.236265,16.46598 C12.3568932,16.3417227 12.5070565,16.2749581 12.6740747,16.2749581 Z" id="Combined-Shape" fill="#FFFFFF"></path>
    </g>
</svg>