<?xml version="1.0" encoding="UTF-8"?>
<svg width="24px" height="24px" viewBox="0 0 24 24" version="1.1" xmlns="http://www.w3.org/2000/svg" xmlns:xlink="http://www.w3.org/1999/xlink">
    <title>topbar_close</title>
    <g id="topbar_close" stroke="none" stroke-width="1" fill="none" fill-rule="evenodd">
        <path d="M22.7914286,1.20857143 C22.123953,0.541095859 21.0417613,0.541095859 20.3742857,1.20857143 L12,9.58285714 L12,9.58285714 L3.62571429,1.20857143 C2.95823872,0.541095859 1.876047,0.541095859 1.20857143,1.20857143 C0.541095859,1.876047 0.541095859,2.95823872 1.20857143,3.62571429 L9.58285714,12 L9.58285714,12 L1.20857143,20.3742857 C0.541095859,21.0417613 0.541095859,22.123953 1.20857143,22.7914286 C1.876047,23.4589041 2.95823872,23.4589041 3.62571429,22.7914286 L12,14.4171429 L12,14.4171429 L20.3742857,22.7914286 C21.0417613,23.4589041 22.123953,23.4589041 22.7914286,22.7914286 C23.4589041,22.123953 23.4589041,21.0417613 22.7914286,20.3742857 L14.4171429,12 L14.4171429,12 L22.7914286,3.62571429 C23.4589041,2.95823872 23.4589041,1.876047 22.7914286,1.20857143 Z" id="Fill-1" fill="#646464"></path>
    </g>
</svg>