<?xml version="1.0" encoding="UTF-8"?>
<svg width="70px" height="70px" viewBox="0 0 70 70" version="1.1" xmlns="http://www.w3.org/2000/svg" xmlns:xlink="http://www.w3.org/1999/xlink">
    <title>ic_btn_logo_1_l</title>
    <g id="ic_btn_logo_1_l" stroke="none" stroke-width="1" fill="none" fill-rule="evenodd">
        <path d="M40.7612352,24.3742628 C40.7612352,24.3742628 47.6263639,18.4016076 55.7179655,19.7950802 C63.8187224,21.1846533 69.4466969,27.4777445 68.1510506,36.4752134 C66.6738238,46.654396 58.8570512,54.5430548 50.4309416,57.4995428 C43.7189101,59.8616137 25.794502,61.4088616 21.700551,65.0077475 C21.700551,65.0077475 17.2019013,60.8369936 13.369555,56.0952195 C9.52686649,51.3525976 4.86833787,45.793627 1.67855889,35.8209476 C-1.2864063,26.5288132 -1.01581592,15.2211535 8.21850439,7.12531335 C17.4635059,-0.976121708 40.592201,2.30046322 40.7612352,24.3742628" id="Fill-1" fill="#231916"></path>
        <path d="M48.8526164,22.0085298 L62.9211117,32.5493473 L62.9217877,32.561617 C62.9347353,32.8310198 63.0660609,37.5192961 57.0288199,44.8924051 C57.0288199,44.8924051 58.2608877,45.5478577 59.4027587,44.9775156 C59.4027587,44.9775156 57.5993315,50.4581574 52.0422259,53.8090021 C46.4795253,57.1637463 42.8901338,57.6479606 35.7681477,58.797122 C28.6576906,59.9418753 25.2320775,60.7644971 21.8827587,62.9712667 C21.8827587,62.9712667 18.2816688,58.797122 15.8216022,56.5913697 L15.812016,56.5830271 C15.6757463,56.4627507 14.1833392,55.0881365 17.6192649,55.4820509 C17.6192649,55.4820509 17.6153116,55.4783539 17.607818,55.4712616 L17.5751294,55.4401003 C17.5468071,55.4129376 17.5059757,55.3733999 17.4559392,55.3239002 L17.3743937,55.2424808 C16.6149917,54.4773199 14.5791266,52.2324615 18.5258105,53.8090021 L18.5383566,53.6475973 C18.5383566,53.6475973 18.0341061,53.2465688 17.5613487,52.7952408 L17.4275949,52.6652242 C16.6137722,51.8587518 16.0561054,50.999827 18.6848417,52.0067617 L18.7246842,51.8658716 C18.7246842,51.8658716 17.463455,50.6973824 17.7815174,50.0424384 C18.1194163,49.3910548 19.9036851,51.0315513 21.1342271,51.6786963 C22.368838,52.3412698 28.2089107,55.4750996 33.0785201,56.4219964 C38.0386655,57.3848302 39.863455,56.7514181 39.6127012,54.7041883 C39.6127012,54.7041883 40.8390045,54.4676761 41.4096857,53.3224142 C41.9849446,52.1663015 41.1726649,51.6786963 41.1726649,51.6786963 C41.1726649,51.6786963 42.2251868,51.5155961 42.3981205,50.0424384 C42.5554563,48.5743669 41.9030554,48.4906128 41.9030554,48.4906128 C41.9030554,48.4906128 43.9448598,47.0201677 42.3153836,45.5478577 C40.6848901,44.0780908 38.5544148,44.8924051 35.9336216,43.51097 C33.8269319,42.39458 34.4221761,40.6302751 35.1224116,39.0054656 L35.250306,38.7117581 C35.378201,38.4199383 35.5043639,38.1343076 35.6131856,37.8595985 C36.346967,35.9749603 37.8167339,33.6905401 37.8167339,33.6905401 C37.8167339,33.6905401 37.9879721,36.0600708 39.4512964,38.1062834 C40.9285232,40.1475792 42.8040061,40.7213121 42.8040061,40.7213121 C42.8040061,40.7213121 40.3563161,38.8473551 40.6848901,35.0005976 L40.6996969,34.8208991 L40.6996969,34.8208991 L40.729001,34.4643882 C40.7437312,34.2870111 40.7587598,34.1108678 40.7749021,33.9355817 L40.8089133,33.5860408 C41.1447221,30.3322435 42.0580388,27.2896409 48.8526164,22.0085298 Z M22.4450306,7.28515834 C22.4450306,7.28515834 26.2844977,11.6281677 26.4552274,12.5979528 L27.6757663,9.49430154 C27.6757663,9.49430154 29.1462113,12.106109 28.8176373,14.3184735 L28.8334408,14.3067155 C28.9884563,14.1878348 30.2381626,13.1480769 30.5447702,10.309294 L30.5724821,10.3332166 C30.9001597,10.6172213 34.0455889,13.3744501 35.2802713,15.6234447 L35.8584124,13.4151493 L35.8625655,13.4192628 L35.8946427,13.4520691 C36.2404796,13.8123149 38.9373175,16.7978932 38.5544826,21.9256912 C38.1436803,27.4031117 34.7918183,35.8209137 25.8855634,35.6522186 C25.8855634,35.6522186 26.9511402,37.9422337 31.925188,38.2767417 L31.9251153,38.2938709 C31.9212715,38.5014996 31.8000784,40.5289228 28.5351789,40.6476288 C26.0783336,40.7320612 21.3875919,37.8596664 20.238261,37.0473866 C20.238261,37.0473866 23.5877493,41.8637596 30.6217427,43.9109894 C37.6535319,45.9577106 40.1078341,45.7154338 40.7612522,46.2054127 C41.409584,46.6965783 41.5818395,47.4266297 40.4325086,47.5178438 C39.2904681,47.5890518 37.4945008,47.3547436 37.2510372,47.6694151 C37.0002834,47.9981586 36.9166988,48.2306019 37.4945008,48.304353 C38.0584002,48.3847163 40.1078341,48.9767599 40.2602531,49.7122368 C40.4325086,50.4580557 40.1078341,50.6972807 39.0478523,50.787647 C37.98804,50.8574986 37.204752,50.8417312 37.6104681,51.2520248 C38.027713,51.6529936 39.2904681,51.8427121 39.5283367,52.1663694 C39.7857027,52.5003688 39.5224027,52.9722065 38.4700503,53.1490397 C37.3644614,53.3357063 36.4875858,53.7007321 37.2510372,53.8894332 C38.7152092,54.2598843 37.98804,55.1894877 36.4223118,55.0396119 C34.8696385,54.8717645 25.5585153,52.1663694 19.8267805,48.0759788 C14.3895247,44.2026709 13.6774452,45.2621772 12.9859076,46.0791817 L12.9129868,46.164063 C12.9007782,46.177986 12.8885252,46.1917786 12.8762022,46.2054127 C12.1451335,47.0202355 11.9771166,47.6694151 11.9771166,47.6694151 L11.9244096,47.6164065 C11.1904556,46.8686479 3.06392181,38.2778428 4.78629609,26.1742652 C4.78629609,26.1742652 8.78988071,30.1829361 13.5377584,31.4066963 C13.5377584,31.4066963 7.97421011,26.6686521 6.50444323,22.3305595 C6.50444323,22.3305595 2.25654738,23.385455 2.08853043,19.7950463 C1.92305662,16.2014163 4.94363185,16.1152885 5.52499425,16.3612952 C6.09465819,16.6113709 7.15955677,17.1767962 7.56442507,17.9188853 C7.56442507,17.9188853 10.1063809,11.2190609 17.8634744,7.28515834 L18.2817366,10.3871141 L22.4450306,7.28515834 Z" id="Combined-Shape" fill="#FFF000"></path>
        <path d="M45.9909198,28.79338 C45.9909198,28.79338 46.1574108,32.0550451 49.5847193,34.682281 C53.0169446,37.2957838 57.1181859,37.4580363 57.1181859,37.4580363 C57.1181859,37.4580363 55.8032116,41.7091535 49.5847193,40.3967224 C43.3745347,39.085139 43.7056518,33.0355114 45.9909198,28.79338 Z M59.0698105,32.710023 C59.7116997,32.710023 60.2242277,33.2334018 60.2242277,33.8568108 C60.2242277,34.4912401 59.7116997,35.0005468 59.0698105,35.0005468 C58.4464015,35.0005468 57.9411638,34.4912401 57.9411638,33.8568108 C57.9411638,33.2334018 58.4464015,32.710023 59.0698105,32.710023 Z M13.4549876,19.9582822 L13.4658633,19.968275 C13.7881475,20.2617921 21.2571441,26.8900747 33.7268859,22.4100412 C33.7268859,22.4100412 31.7637493,30.4197536 22.7795047,29.6008616 C14.0219682,28.8148633 13.4785958,20.4237762 13.4558435,19.9768105 L13.4549876,19.9582822 L13.4549876,19.9582822 Z M49.2633678,25.5135907 C49.8042095,25.5135907 50.2321356,25.9523675 50.2321356,26.5006691 C50.2321356,27.0354072 49.8042095,27.4852044 49.2633678,27.4852044 C48.711845,27.4852044 48.2820539,27.0354072 48.2820539,26.5006691 C48.2820539,25.9523675 48.711845,25.5135907 49.2633678,25.5135907 Z M31.925188,15.9985583 C32.5784366,15.9985583 33.1101229,16.5260061 33.1101229,17.176881 C33.1101229,17.8269083 32.5784366,18.3577469 31.925188,18.3577469 C31.2826206,18.3577469 30.7509343,17.8269083 30.7509343,17.176881 C30.7509343,16.5260061 31.2826206,15.9985583 31.925188,15.9985583 Z M16.5618432,11.7789591 C17.3700539,11.7789591 18.0233025,12.4430584 18.0233025,13.2495737 C18.0233025,14.0610058 17.3700539,14.7259528 16.5618432,14.7259528 C15.7446467,14.7259528 15.0846164,14.0610058 15.0846164,13.2495737 C15.0846164,12.4430584 15.7446467,11.7789591 16.5618432,11.7789591 Z" id="Combined-Shape" fill="#231916"></path>
    </g>
</svg>