<?xml version="1.0" encoding="UTF-8"?>
<svg width="19px" height="24px" viewBox="0 0 19 24" version="1.1" xmlns="http://www.w3.org/2000/svg" xmlns:xlink="http://www.w3.org/1999/xlink">
    <title>Combined Shape</title>
    <g id="Symbols" stroke="none" stroke-width="1" fill="none" fill-rule="evenodd">
        <g id="ic_input_password" transform="translate(-3.000000, 0.000000)" fill="#BEBEBE">
            <path d="M12.2886376,-1.77635684e-15 C15.0006376,-1.77635684e-15 17.2070436,2.16081973 17.2070436,4.81685009 L17.2070436,4.81685009 L17.2070436,8.56166983 L18.8481973,8.56166983 C20.3548691,8.56166983 21.5806452,9.78744592 21.5806452,11.2941176 L21.5806452,11.2941176 L21.5806452,20.5844402 C21.5806452,22.091112 20.3548691,23.316888 18.8481973,23.316888 L18.8481973,23.316888 L5.73244782,23.316888 C4.22577609,23.316888 3,22.091112 3,20.5844402 L3,20.5844402 L3,11.2941176 C3,9.78744592 4.22577609,8.56166983 5.73244782,8.56166983 L5.73244782,8.56166983 L7.3702315,8.56166983 L7.3702315,4.81685009 C7.3702315,2.16081973 9.57663757,-1.77635684e-15 12.2886376,-1.77635684e-15 Z M12.2903226,13.0246679 C11.3596964,13.0246679 10.6053131,13.7790512 10.6053131,14.7096774 C10.6053131,15.3038937 10.9131689,15.8258824 11.3778216,16.1259051 L11.3778216,18.1252372 C11.3778216,18.6282353 11.7855939,19.0360531 12.2886376,19.0360531 C12.7916357,19.0360531 13.1994535,18.6282353 13.1994535,18.1252372 L13.1994535,16.1280455 C13.6659734,15.8283871 13.9753321,15.305351 13.9753321,14.7096774 C13.9753321,13.7790512 13.2209488,13.0246679 12.2903226,13.0246679 Z M12.2886376,1.82163188 C10.5810854,1.82163188 9.19186338,3.16526755 9.19186338,4.81685009 L9.19186338,4.81685009 L9.19186338,8.56166983 L15.3854118,8.56166983 L15.3854118,4.81685009 C15.3854118,3.16526755 13.9961898,1.82163188 12.2886376,1.82163188 Z" id="Combined-Shape"></path>
        </g>
    </g>
</svg>